<svg width="18" height="18" viewBox="0 0 18 18" fill="none" xmlns="http://www.w3.org/2000/svg">
<path d="M11.9799 8.29297L11.1979 9.09297C10.8476 9.39426 10.5731 9.77374 10.3966 10.2007C10.2201 10.6277 10.1466 11.0903 10.1819 11.551H8.44493V11.117C8.44405 10.6605 8.53334 10.2084 8.7077 9.78661C8.88206 9.36479 9.13804 8.98157 9.46093 8.65897L10.5379 7.55897C10.7011 7.39958 10.8305 7.20898 10.9185 6.99852C11.0064 6.78807 11.0511 6.56207 11.0499 6.33397C11.0499 5.87329 10.8669 5.43148 10.5412 5.10573C10.2154 4.77998 9.77361 4.59697 9.31293 4.59697C8.85225 4.59697 8.41044 4.77998 8.08469 5.10573C7.75894 5.43148 7.57593 5.87329 7.57593 6.33397H5.83893C5.83893 5.41261 6.20494 4.52898 6.85644 3.87748C7.50795 3.22598 8.39157 2.85997 9.31293 2.85997C10.2343 2.85997 11.1179 3.22598 11.7694 3.87748C12.4209 4.52898 12.7869 5.41261 12.7869 6.33397C12.7856 7.06633 12.4952 7.76855 11.9789 8.28797M10.1789 15.019H8.44493V13.287H10.1819M9.31393 0.258972C7.596 0.258972 5.91666 0.768397 4.48825 1.72283C3.05984 2.67726 1.94654 4.03382 1.28912 5.62098C0.631693 7.20814 0.459681 8.95461 0.794833 10.6395C1.12998 12.3244 1.95725 13.8721 3.172 15.0869C4.38676 16.3017 5.93446 17.1289 7.61938 17.4641C9.3043 17.7992 11.0508 17.6272 12.6379 16.9698C14.2251 16.3124 15.5816 15.1991 16.5361 13.7707C17.4905 12.3422 17.9999 10.6629 17.9999 8.94497C17.9999 7.80431 17.7753 6.67482 17.3388 5.62098C16.9022 4.56715 16.2624 3.60961 15.4559 2.80304C14.6493 1.99647 13.6918 1.35667 12.6379 0.920155C11.5841 0.483642 10.4546 0.258972 9.31393 0.258972Z" fill="#FF7B00"/>
</svg>
