<svg width="185" height="22" viewBox="0 0 185 22" fill="none" xmlns="http://www.w3.org/2000/svg">
<g clip-path="url(#clip0_724_10595)">
<path d="M19.2494 1.30066H1.4546C1.1618 1.30066 0.880989 1.41698 0.673946 1.62402C0.466902 1.83106 0.350586 2.11187 0.350586 2.40468V20.1995C0.350533 20.3445 0.37905 20.4881 0.434508 20.6221C0.489966 20.7561 0.571279 20.8778 0.673802 20.9804C0.776325 21.083 0.898049 21.1643 1.03202 21.2198C1.16599 21.2753 1.30959 21.3039 1.4546 21.3039H11.0357V13.5677H8.43781V10.5413H11.0357V8.31223C11.0357 5.72768 12.6135 4.32171 14.9188 4.32171C15.6971 4.31926 16.4749 4.35904 17.2489 4.44087V7.14093H15.6581C14.4041 7.14093 14.1609 7.73631 14.1609 8.61093V10.5413H17.1601L16.7714 13.5677H14.1609V21.3039H19.2494C19.5417 21.3029 19.8217 21.1862 20.028 20.9791C20.2343 20.7721 20.3502 20.4918 20.3502 20.1995V2.40468C20.3502 2.11243 20.2343 1.83211 20.028 1.62516C19.8216 1.41821 19.5416 1.30152 19.2494 1.30066Z" fill="white"/>
</g>
<g clip-path="url(#clip1_724_10595)">
<path d="M38.0661 20.8045C47.352 20.8045 52.4297 13.1099 52.4297 6.44084C52.4297 6.22129 52.4297 6.0022 52.4188 5.7922C53.4083 5.07427 54.2624 4.1864 54.9416 3.16992C54.0193 3.57643 53.0421 3.84477 52.0415 3.96629C53.0968 3.33579 53.8856 2.34175 54.2597 1.17083C53.2686 1.75637 52.1856 2.17022 51.0565 2.39492C50.3633 1.65803 49.4648 1.14626 48.4774 0.925877C47.49 0.705498 46.4592 0.786668 45.5184 1.15887C44.5777 1.53108 43.7703 2.17718 43.201 3.01348C42.6317 3.84978 42.3265 4.83777 42.3252 5.84947C42.3223 6.23761 42.3681 6.62457 42.4615 7.00129C40.4536 6.90243 38.4889 6.38182 36.6955 5.47336C34.9021 4.5649 33.32 3.28894 32.0524 1.72855C31.4065 2.8409 31.2098 4.15793 31.5026 5.41045C31.7953 6.66297 32.5554 7.75639 33.6274 8.46721C32.8248 8.44451 32.0397 8.22722 31.3397 7.83402V7.8963C31.3401 9.06251 31.7439 10.1927 32.4825 11.0951C33.2212 11.9976 34.2493 12.6168 35.3924 12.8477C34.9594 12.9667 34.5124 13.0269 34.0633 13.0268C33.7428 13.0267 33.4231 12.9951 33.1088 12.9322C33.4291 13.9358 34.0557 14.8137 34.9007 15.4428C35.7457 16.0719 36.7665 16.4204 37.8197 16.4395C36.0318 17.8403 33.8255 18.6007 31.5542 18.5991C31.1518 18.6009 30.7498 18.5763 30.3506 18.5254C32.6457 20.02 35.3272 20.8121 38.0661 20.8045Z" fill="white"/>
</g>
<g clip-path="url(#clip2_724_10595)">
<path d="M106.832 19.497C106.266 19.1157 105.864 18.5215 105.628 17.7145C105.391 16.9074 105.271 15.838 105.268 14.5063V12.6913C105.268 11.34 105.403 10.257 105.675 9.44238C105.946 8.62772 106.373 8.03356 106.954 7.6599C107.534 7.28515 108.294 7.09778 109.235 7.09778C110.176 7.09778 110.917 7.28841 111.459 7.66967C112.016 8.05094 112.425 8.6451 112.686 9.45216C112.947 10.2592 113.075 11.3389 113.072 12.6913V14.5096C113.072 15.8456 112.947 16.9188 112.696 17.7291C112.445 18.5395 112.036 19.1336 111.469 19.5116C110.904 19.8864 110.138 20.0737 109.17 20.0737C108.177 20.0705 107.398 19.8782 106.832 19.497ZM110.001 17.5418C110.157 17.1334 110.235 16.4653 110.235 15.5377V11.6289C110.235 10.7295 110.157 10.0718 110.001 9.65583C109.838 9.24035 109.567 9.03179 109.173 9.03179C108.779 9.03179 108.521 9.24035 108.358 9.65583C108.195 10.0713 108.122 10.7295 108.122 11.6289V15.5312C108.122 16.4577 108.197 17.1257 108.347 17.5353C108.497 17.9448 108.768 18.149 109.162 18.1479C109.35 18.1534 109.534 18.0962 109.686 17.9853C109.838 17.8744 109.949 17.716 110.001 17.5353V17.5418Z" fill="white"/>
<path d="M150.237 14.5406V15.1744C150.229 15.7781 150.253 16.3818 150.309 16.983C150.325 17.2973 150.428 17.6012 150.605 17.8612C150.692 17.9575 150.8 18.0326 150.92 18.0807C151.04 18.1287 151.17 18.1484 151.299 18.1381C151.723 18.1381 152.013 17.9752 152.168 17.6493C152.323 17.3235 152.408 16.7804 152.424 16.02L154.853 16.1634C154.868 16.3128 154.874 16.463 154.873 16.6131C154.873 17.7721 154.556 18.6362 153.924 19.2054C153.292 19.7745 152.396 20.0608 151.236 20.064C149.847 20.064 148.874 19.6295 148.319 18.7605C147.764 17.8916 147.485 16.5419 147.482 14.7117V12.5153C147.482 10.6351 147.771 9.2632 148.35 8.39965C148.929 7.53611 149.92 7.10162 151.324 7.09619C152.301 7.09619 153.044 7.27324 153.551 7.62735C154.058 7.98146 154.42 8.53435 154.636 9.28601C154.854 10.0355 154.962 11.0717 154.962 12.3948V14.5406H150.237ZM150.596 9.26645C150.424 9.52525 150.325 9.82505 150.309 10.1349C150.253 10.7431 150.229 11.3539 150.237 11.9646V12.864H152.301V11.9646C152.311 11.3536 152.284 10.7426 152.22 10.1349C152.165 9.72104 152.067 9.42776 151.923 9.25668C151.742 9.09081 151.504 8.99969 151.258 9.0015C151.011 9.00331 150.775 9.09793 150.596 9.26645Z" fill="white"/>
<path d="M99.9656 14.306L96.7559 2.71655H99.5648L100.689 7.9695C100.975 9.26536 101.186 10.369 101.323 11.2803H101.403C101.499 10.6286 101.711 9.53149 102.037 7.98906L103.203 2.71655H106.002L102.744 14.306V19.8636H99.9738L99.9656 14.306Z" fill="white"/>
<path d="M122.183 7.33569V19.8636H119.979L119.734 18.332H119.673C119.073 19.491 118.174 20.07 116.974 20.0689C116.143 20.0689 115.531 19.7973 115.137 19.2542C114.742 18.7111 114.545 17.859 114.543 16.6978V7.33569H117.362V16.5267C117.362 17.085 117.424 17.4837 117.548 17.7227C117.603 17.8364 117.691 17.9312 117.8 17.9947C117.909 18.0583 118.035 18.0878 118.161 18.0795C118.412 18.0775 118.658 17.9997 118.864 17.8563C119.081 17.7147 119.255 17.5163 119.366 17.2827V7.33569H122.183Z" fill="white"/>
<path d="M136.648 7.33569V19.8636H134.442L134.196 18.332H134.136C133.536 19.491 132.637 20.07 131.438 20.0689C130.607 20.0689 129.994 19.7973 129.598 19.2542C129.203 18.7111 129.006 17.859 129.007 16.6978V7.33569H131.826V16.5267C131.826 17.085 131.887 17.4837 132.011 17.7227C132.066 17.836 132.154 17.9304 132.263 17.994C132.371 18.0575 132.497 18.0873 132.622 18.0795C132.875 18.0775 133.121 17.9998 133.329 17.8563C133.545 17.7142 133.718 17.5159 133.83 17.2827V7.33569H136.648Z" fill="white"/>
<path d="M129.846 4.98128H127.047V19.8587H124.293V4.98128H121.487V2.71814H129.846V4.98128Z" fill="white"/>
<path d="M145.984 9.33812C145.814 8.54952 145.538 7.97709 145.157 7.62081C144.776 7.26453 144.251 7.08747 143.583 7.08965C143.061 7.0877 142.55 7.24143 142.116 7.53119C141.673 7.81689 141.313 8.21491 141.074 8.68476H141.054V2.08435H138.351V19.8636H140.681L140.968 18.6791H141.033C141.252 19.1027 141.592 19.4515 142.011 19.6811C142.456 19.9287 142.958 20.0557 143.467 20.0493C144.42 20.0493 145.122 19.6094 145.574 18.7296C146.026 17.8497 146.25 16.4773 146.247 14.6122V12.6294C146.242 11.2238 146.155 10.1267 145.984 9.33812ZM143.394 14.4493C143.404 15.1663 143.366 15.8831 143.281 16.5951C143.206 17.1116 143.081 17.4815 142.903 17.6982C142.818 17.8047 142.709 17.8897 142.585 17.9463C142.46 18.0029 142.325 18.0296 142.188 18.0241C141.961 18.0267 141.736 17.9705 141.536 17.8611C141.33 17.748 141.161 17.5785 141.048 17.3723V10.2603C141.13 9.94096 141.299 9.6506 141.536 9.42121C141.736 9.21741 142.009 9.10037 142.294 9.09535C142.424 9.09027 142.554 9.11878 142.67 9.17813C142.786 9.23747 142.885 9.32566 142.957 9.43425C143.12 9.65746 143.223 10.0355 143.283 10.5748C143.353 11.3281 143.384 12.0846 143.374 12.8412L143.394 14.4493Z" fill="white"/>
<path d="M93.3328 4.42078C93.1695 3.8153 92.8501 3.26328 92.4067 2.81983C91.9632 2.37639 91.4112 2.05705 90.8057 1.89369C88.5752 1.30225 79.64 1.30225 79.64 1.30225C79.64 1.30225 70.7031 1.30225 68.4742 1.89369C67.869 2.05729 67.3173 2.37675 66.8742 2.82018C66.431 3.2636 66.1119 3.8155 65.9487 4.42078C65.3491 6.64644 65.3491 11.2998 65.3491 11.2998C65.3491 11.2998 65.3491 15.9499 65.9471 18.1788C66.1107 18.784 66.4301 19.3357 66.8736 19.7788C67.317 20.222 67.8689 20.5411 68.4742 20.7043C70.7047 21.3022 79.6497 21.3022 79.6497 21.3022C79.6497 21.3022 88.585 21.3022 90.8155 20.7043C91.4208 20.5411 91.9727 20.222 92.4161 19.7788C92.8595 19.3357 93.179 18.784 93.3426 18.1788C93.9389 15.9499 93.9389 11.2998 93.9389 11.2998C93.9389 11.2998 93.9292 6.64644 93.3328 4.42078ZM76.7821 15.5866V7.01304L84.207 11.2998L76.7821 15.5866Z" fill="white"/>
</g>
<g clip-path="url(#clip3_724_10595)">
<path d="M174.991 3.22652C177.61 3.22652 177.921 3.23671 178.955 3.28362C179.911 3.32747 180.43 3.48757 180.776 3.62115C181.202 3.77846 181.587 4.02936 181.904 4.35536C182.23 4.67137 182.481 5.05686 182.638 5.48318C182.772 5.82887 182.933 6.34792 182.975 7.30442C183.023 8.33945 183.032 8.64945 183.032 11.2691C183.032 13.8888 183.023 14.1988 182.975 15.2328C182.933 16.1893 182.771 16.7084 182.638 17.0541C182.475 17.4773 182.225 17.8617 181.904 18.1824C181.583 18.5031 181.199 18.7531 180.776 18.9161C180.43 19.0507 179.911 19.2108 178.955 19.2536C177.921 19.3016 177.61 19.3118 174.991 19.3118C172.372 19.3118 172.06 19.3016 171.026 19.2536C170.07 19.2108 169.551 19.0497 169.205 18.9161C168.782 18.7531 168.397 18.5031 168.077 18.1824C167.756 17.8617 167.506 17.4773 167.343 17.0541C167.205 16.7084 167.049 16.1904 167.001 15.2328C166.954 14.1988 166.944 13.8878 166.944 11.2691C166.944 8.65047 166.958 8.33843 167.001 7.30442C167.045 6.34792 167.205 5.82887 167.339 5.48318C167.496 5.05706 167.747 4.67166 168.073 4.35536C168.389 4.02936 168.775 3.77846 169.201 3.62115C169.546 3.48655 170.066 3.32747 171.022 3.28362C172.057 3.23671 172.367 3.22652 174.987 3.22652M174.987 1.4583C172.322 1.4583 171.988 1.47054 170.941 1.51745C169.895 1.56435 169.189 1.73159 168.564 1.97429C167.911 2.22048 167.32 2.60644 166.831 3.10517C166.332 3.59396 165.946 4.18552 165.699 4.83871C165.457 5.46279 165.291 6.17558 165.243 7.21979C165.195 8.26399 165.184 8.6005 165.184 11.2651C165.184 13.9296 165.195 14.2631 165.243 15.3093C165.291 16.3556 165.457 17.0663 165.699 17.6904C165.946 18.3436 166.332 18.9351 166.831 19.4239C167.32 19.9226 167.911 20.3089 168.564 20.5558C169.189 20.7985 169.901 20.9637 170.946 21.0117C171.99 21.0596 172.326 21.0708 174.991 21.0708C177.655 21.0708 177.989 21.0596 179.035 21.0117C180.081 20.9637 180.792 20.7985 181.416 20.5558C182.068 20.3036 182.66 19.9181 183.154 19.424C183.648 18.9298 184.033 18.338 184.286 17.6863C184.528 17.0622 184.694 16.3494 184.742 15.3052C184.789 14.261 184.801 13.9245 184.801 11.261C184.801 8.59745 184.789 8.26195 184.742 7.21571C184.694 6.16946 184.528 5.45871 184.286 4.83463C184.039 4.18145 183.653 3.58988 183.154 3.10109C182.665 2.60236 182.074 2.2164 181.42 1.97021C180.796 1.72751 180.083 1.56232 179.039 1.51337C177.995 1.46442 177.658 1.45422 174.995 1.45422L174.987 1.4583Z" fill="white"/>
<path d="M174.991 6.23169C173.995 6.23169 173.021 6.52713 172.192 7.08066C171.364 7.63418 170.718 8.42093 170.337 9.34141C169.956 10.2619 169.856 11.2748 170.05 12.2519C170.245 13.2291 170.725 14.1267 171.429 14.8312C172.134 15.5357 173.031 16.0155 174.008 16.2098C174.986 16.4042 175.998 16.3045 176.919 15.9232C177.839 15.5419 178.626 14.8962 179.18 14.0678C179.733 13.2394 180.029 12.2655 180.029 11.2692C180.029 10.6076 179.898 9.95258 179.645 9.34141C179.392 8.73023 179.021 8.1749 178.553 7.70713C178.085 7.23936 177.53 6.8683 176.919 6.61514C176.308 6.36199 175.653 6.23169 174.991 6.23169ZM174.991 14.5384C174.344 14.5386 173.712 14.347 173.174 13.9877C172.636 13.6284 172.217 13.1177 171.969 12.5201C171.721 11.9225 171.656 11.2649 171.783 10.6304C171.909 9.99593 172.22 9.41313 172.678 8.95571C173.135 8.49829 173.718 8.1868 174.352 8.06065C174.987 7.9345 175.644 7.99935 176.242 8.247C176.84 8.49464 177.35 8.91396 177.71 9.45191C178.069 9.98986 178.261 10.6223 178.26 11.2692C178.26 12.1362 177.916 12.9678 177.303 13.5809C176.69 14.194 175.858 14.5384 174.991 14.5384Z" fill="white"/>
<path d="M180.227 7.20852C180.877 7.20852 181.404 6.68166 181.404 6.03175C181.404 5.38184 180.877 4.85498 180.227 4.85498C179.577 4.85498 179.05 5.38184 179.05 6.03175C179.05 6.68166 179.577 7.20852 180.227 7.20852Z" fill="white"/>
</g>
<defs>
<clipPath id="clip0_724_10595">
<rect width="20" height="20.0032" fill="white" transform="translate(0.350586 1.30066)"/>
</clipPath>
<clipPath id="clip1_724_10595">
<rect width="25" height="21" fill="white" transform="translate(30.3506 0.802246)"/>
</clipPath>
<clipPath id="clip2_724_10595">
<rect width="89.6114" height="20" fill="white" transform="translate(65.3506 1.30225)"/>
</clipPath>
<clipPath id="clip3_724_10595">
<rect width="20.0377" height="20" fill="white" transform="translate(164.962 1.30225)"/>
</clipPath>
</defs>
</svg>
