<svg width="52" height="49" viewBox="0 0 52 49" fill="none" xmlns="http://www.w3.org/2000/svg">
<path d="M43.86 15.7539C43.8595 15.6053 43.8561 15.4575 43.8494 15.3104V6.926L41.5315 9.24395C39.6344 6.9218 36.7484 5.43862 33.5158 5.43862C30.1518 5.43862 27.1631 7.04435 25.2739 9.53107L29.0733 13.3704C29.4457 12.6818 29.9746 12.0904 30.6124 11.6436C31.2757 11.126 32.2156 10.7028 33.5157 10.7028C33.6727 10.7028 33.794 10.7211 33.883 10.7557C35.4939 10.8829 36.8901 11.7718 37.7123 13.0621L35.0229 15.7515C38.4293 15.7382 42.2776 15.7303 43.8597 15.7533" fill="#1C3AA9"/>
<path d="M33.4554 5.43899C33.3068 5.43948 33.159 5.44291 33.012 5.44957H24.6275L26.9455 7.76752C24.6233 9.66463 23.1401 12.5506 23.1401 15.7832C23.1401 19.1472 24.7459 22.1359 27.2326 24.0251L31.072 20.2257C30.3833 19.8533 29.7919 19.3244 29.3452 18.6866C28.8276 18.0233 28.4043 17.0834 28.4043 15.7833C28.4043 15.6263 28.4227 15.505 28.4572 15.416C28.5844 13.8051 29.4733 12.4089 30.7636 11.5867L33.453 14.2761C33.4397 10.8697 33.4318 7.0214 33.4548 5.43928" fill="#4285F4"/>
<path d="M23.1406 15.783C23.1411 15.9315 23.1445 16.0793 23.1512 16.2264V24.6108L25.4692 22.2929C27.3663 24.615 30.2523 26.0982 33.4848 26.0982C36.8489 26.0982 39.8375 24.4925 41.7267 22.0057L37.9273 18.1664C37.555 18.855 37.026 19.4465 36.3882 19.8932C35.7249 20.4108 34.7851 20.834 33.485 20.834C33.3279 20.834 33.2067 20.8157 33.1176 20.7811C31.5068 20.654 30.1105 19.765 29.2883 18.4747L31.9778 15.7853C28.5713 15.7987 24.723 15.8065 23.1409 15.7836" fill="#ABABAB"/>
<path d="M24.8859 30.1042C24.6339 30.1042 24.408 30.152 24.2082 30.2475C24.0084 30.3409 23.8389 30.4745 23.6999 30.6483C23.5631 30.8221 23.4577 31.0328 23.3839 31.2804C23.3122 31.5258 23.2763 31.8006 23.2763 32.1047V32.9811C23.2763 33.2874 23.3122 33.5633 23.3839 33.8087C23.4577 34.0542 23.562 34.2638 23.6967 34.4376C23.8313 34.6113 23.9942 34.7449 24.1854 34.8383C24.3765 34.9317 24.5916 34.9784 24.8305 34.9784C25.076 34.9784 25.291 34.9426 25.4756 34.8709C25.6624 34.7992 25.8188 34.696 25.9448 34.5614C26.0708 34.4245 26.1675 34.2595 26.2348 34.0661C26.3043 33.8728 26.3456 33.6534 26.3586 33.408H25.7558C25.7406 33.5969 25.7146 33.7588 25.6776 33.8934C25.6407 34.0259 25.5864 34.1356 25.5147 34.2225C25.4452 34.3072 25.354 34.3702 25.241 34.4115C25.1302 34.4506 24.9934 34.4701 24.8305 34.4701C24.6567 34.4701 24.509 34.4321 24.3874 34.3561C24.2657 34.2779 24.1669 34.1715 24.0909 34.0368C24.017 33.9021 23.9627 33.7446 23.928 33.5644C23.8954 33.3841 23.8791 33.1897 23.8791 32.9811V32.0982C23.8791 31.8744 23.8987 31.6713 23.9378 31.4889C23.979 31.3064 24.0409 31.1511 24.1235 31.0229C24.206 30.8948 24.3103 30.796 24.4363 30.7265C24.5623 30.6548 24.7121 30.6189 24.8859 30.6189C25.0314 30.6189 25.1563 30.6406 25.2606 30.6841C25.3648 30.7254 25.4517 30.7905 25.5212 30.8796C25.5907 30.9665 25.644 31.0773 25.6809 31.2119C25.7178 31.3466 25.7428 31.5073 25.7558 31.6941H26.3586C26.3477 31.4378 26.3076 31.2108 26.2381 31.0132C26.1685 30.8155 26.0719 30.6493 25.9481 30.5146C25.8243 30.38 25.6733 30.2779 25.4952 30.2084C25.3193 30.1389 25.1162 30.1042 24.8859 30.1042ZM39.6001 30.1042C39.3481 30.1042 39.1222 30.152 38.9223 30.2475C38.7225 30.3409 38.5531 30.4745 38.4141 30.6483C38.2772 30.8221 38.1719 31.0328 38.098 31.2804C38.0263 31.5258 37.9905 31.8006 37.9905 32.1047V32.9811C37.9905 33.2874 38.0263 33.5633 38.098 33.8087C38.1719 34.0542 38.2761 34.2638 38.4108 34.4376C38.5455 34.6113 38.7084 34.7449 38.8995 34.8383C39.0907 34.9317 39.3057 34.9784 39.5447 34.9784C39.7901 34.9784 40.0051 34.9426 40.1898 34.8709C40.3766 34.7992 40.533 34.696 40.659 34.5614C40.785 34.4245 40.8816 34.2595 40.949 34.0661C41.0185 33.8728 41.0597 33.6534 41.0728 33.408H40.47C40.4548 33.5969 40.4288 33.7588 40.3918 33.8934C40.3549 34.0259 40.3006 34.1356 40.2289 34.2225C40.1594 34.3072 40.0682 34.3702 39.9552 34.4115C39.8444 34.4506 39.7076 34.4701 39.5447 34.4701C39.3709 34.4701 39.2232 34.4321 39.1016 34.3561C38.9799 34.2779 38.8811 34.1715 38.8051 34.0368C38.7312 33.9021 38.6769 33.7446 38.6422 33.5644C38.6096 33.3841 38.5933 33.1897 38.5933 32.9811V32.0982C38.5933 31.8744 38.6129 31.6713 38.6519 31.4889C38.6932 31.3064 38.7551 31.1511 38.8377 31.0229C38.9202 30.8948 39.0245 30.796 39.1504 30.7265C39.2764 30.6548 39.4263 30.6189 39.6001 30.6189C39.7456 30.6189 39.8705 30.6406 39.9747 30.6841C40.079 30.7254 40.1659 30.7905 40.2354 30.8796C40.3049 30.9665 40.3581 31.0773 40.3951 31.2119C40.432 31.3466 40.457 31.5073 40.47 31.6941H41.0727C41.0619 31.4378 41.0217 31.2108 40.9522 31.0132C40.8827 30.8155 40.786 30.6493 40.6622 30.5146C40.5384 30.38 40.3874 30.2779 40.2093 30.2084C40.0334 30.1389 39.8303 30.1042 39.6001 30.1042ZM28.3202 30.1693L26.7921 34.9132H27.4047L27.7729 33.6751H29.3759L29.7506 34.9132H30.3631L28.8318 30.1693H28.3202ZM31.0082 30.1693V34.9132H31.6044V33.0561H32.52C32.748 33.0561 32.9501 33.0246 33.126 32.9616C33.3019 32.8964 33.4497 32.803 33.5691 32.6814C33.6908 32.5597 33.782 32.4098 33.8428 32.2317C33.9058 32.0514 33.9373 31.8473 33.9373 31.6192C33.9373 31.4085 33.9058 31.2152 33.8428 31.0392C33.782 30.8611 33.6918 30.708 33.5724 30.5798C33.4529 30.4495 33.3041 30.3485 33.126 30.2768C32.9501 30.2051 32.7481 30.1693 32.52 30.1693L31.0082 30.1693ZM34.3934 30.1693V30.6841H35.6381V34.9132H36.2343V30.6841H37.4822V30.1693H34.3934ZM41.8775 30.1693V34.9132H42.4738V32.7205H44.3831V34.9132H44.9826V30.1693H44.3831V32.209H42.4738V30.1693H41.8775ZM47.2438 30.1693L45.7157 34.9132H46.3282L46.6964 33.6751H48.2994L48.6741 34.9132H49.2867L47.7553 30.1693H47.2438ZM31.6044 30.6841H32.5199C32.6655 30.6841 32.7893 30.7102 32.8914 30.7623C32.9956 30.8145 33.0803 30.884 33.1455 30.9709C33.2128 31.0577 33.2617 31.1587 33.2921 31.2739C33.3247 31.3868 33.341 31.5041 33.341 31.6258C33.341 31.7604 33.3247 31.8842 33.2921 31.9972C33.2617 32.108 33.2128 32.2046 33.1455 32.2872C33.0803 32.3675 32.9956 32.4305 32.8914 32.4761C32.7893 32.5218 32.6655 32.5446 32.5199 32.5446H31.6044V30.6841ZM28.5743 31.0034L29.2227 33.1604H27.9292L28.5743 31.0034ZM47.4978 31.0034L48.1462 33.1604H46.8527L47.4978 31.0034ZM19.4321 31.3228C19.2822 31.3228 19.153 31.3608 19.0444 31.4368C18.9379 31.5128 18.8489 31.616 18.7772 31.7463L18.7674 31.3879H18.207V34.9133H18.7837V32.3913C18.838 32.2415 18.9152 32.1231 19.0151 32.0362C19.1172 31.9493 19.2464 31.9059 19.4028 31.9059C19.4528 31.9059 19.4973 31.9081 19.5364 31.9124C19.5755 31.9146 19.6178 31.92 19.6635 31.9287L19.6602 31.3683C19.6515 31.3639 19.6374 31.3595 19.6178 31.3552C19.6005 31.3487 19.5809 31.3432 19.5592 31.3389C19.5375 31.3346 19.5147 31.3313 19.4908 31.3291C19.469 31.3248 19.4495 31.3228 19.4321 31.3228ZM21.3707 31.3228C21.2035 31.3228 21.0417 31.3521 20.8853 31.4107C20.7289 31.4694 20.5899 31.566 20.4682 31.7007C20.3488 31.8332 20.2521 32.007 20.1783 32.222C20.1044 32.4349 20.0675 32.6966 20.0675 33.0072V33.4048C20.0675 33.6741 20.099 33.9076 20.162 34.1053C20.225 34.3029 20.3151 34.4669 20.4324 34.5973C20.5518 34.7254 20.6963 34.821 20.8657 34.884C21.0352 34.947 21.2252 34.9785 21.4359 34.9785C21.588 34.9785 21.7237 34.9633 21.8432 34.9329C21.9648 34.9025 22.0724 34.8634 22.1658 34.8156C22.2592 34.7656 22.3395 34.7091 22.4069 34.6461C22.4742 34.5831 22.5318 34.518 22.5795 34.4506L22.2798 34.0857C22.232 34.1444 22.181 34.1987 22.1267 34.2486C22.0724 34.2964 22.0126 34.3388 21.9475 34.3757C21.8823 34.4105 21.8106 34.4376 21.7324 34.4572C21.6542 34.4767 21.5663 34.4865 21.4685 34.4865C21.2013 34.4865 20.9961 34.4007 20.8527 34.2291C20.7115 34.0575 20.6409 33.7827 20.6409 33.4048V33.3233H22.6089V32.9877C22.6089 32.7184 22.5861 32.4805 22.5405 32.2742C22.4948 32.0678 22.4221 31.894 22.3222 31.7528C22.2222 31.6117 22.0941 31.5052 21.9377 31.4335C21.7813 31.3597 21.5923 31.3228 21.3707 31.3228ZM21.3707 31.818C21.4967 31.818 21.601 31.8408 21.6835 31.8864C21.7661 31.932 21.8312 31.9961 21.879 32.0787C21.929 32.1612 21.9648 32.26 21.9865 32.3752C22.0104 32.4881 22.0256 32.613 22.0322 32.7498V32.828H20.6442C20.6529 32.6304 20.6767 32.4664 20.7158 32.336C20.7549 32.2057 20.806 32.1025 20.869 32.0265C20.9341 31.9483 21.0091 31.894 21.0938 31.8636C21.1785 31.8332 21.2708 31.818 21.3707 31.818Z" fill="#A6A6A6"/>
<path d="M4.3584 43.9157C4.3584 44.277 4.2347 44.5553 3.9873 44.7506C3.74154 44.9443 3.38916 45.0412 2.93018 45.0412H2.51025V46.445H2.09521V42.8756H3.02051C3.91243 42.8756 4.3584 43.2223 4.3584 43.9157ZM2.51025 44.6847H2.88379C3.25163 44.6847 3.51774 44.6253 3.68213 44.5065C3.84652 44.3877 3.92871 44.1973 3.92871 43.9352C3.92871 43.6992 3.8514 43.5234 3.69678 43.4079C3.54215 43.2923 3.30127 43.2345 2.97412 43.2345H2.51025V44.6847ZM6.26758 43.7204C6.38639 43.7204 6.493 43.7301 6.5874 43.7497L6.53125 44.1256C6.42057 44.1012 6.32292 44.089 6.23828 44.089C6.02181 44.089 5.83626 44.1769 5.68164 44.3527C5.52865 44.5285 5.45215 44.7474 5.45215 45.0094V46.445H5.04688V43.7692H5.38135L5.42773 44.2648H5.44727C5.54655 44.0906 5.66618 43.9564 5.80615 43.862C5.94613 43.7676 6.09993 43.7204 6.26758 43.7204ZM7.49316 46.445H7.08789V43.7692H7.49316V46.445ZM7.05371 43.0441C7.05371 42.9513 7.0765 42.8838 7.12207 42.8415C7.16764 42.7975 7.22461 42.7755 7.29297 42.7755C7.35807 42.7755 7.41423 42.7975 7.46143 42.8415C7.50863 42.8854 7.53223 42.953 7.53223 43.0441C7.53223 43.1352 7.50863 43.2036 7.46143 43.2492C7.41423 43.2931 7.35807 43.3151 7.29297 43.3151C7.22461 43.3151 7.16764 43.2931 7.12207 43.2492C7.0765 43.2036 7.05371 43.1352 7.05371 43.0441ZM8.93848 46.445L7.92285 43.7692H8.35742L8.93359 45.3561C9.0638 45.7272 9.1403 45.9681 9.16309 46.0788H9.18262C9.20052 45.9925 9.25667 45.8143 9.35107 45.5441C9.4471 45.2723 9.66113 44.6807 9.99316 43.7692H10.4277L9.41211 46.445H8.93848ZM12.5029 46.445L12.4224 46.0641H12.4028C12.2694 46.2318 12.1359 46.3457 12.0024 46.4059C11.8706 46.4645 11.7054 46.4938 11.5068 46.4938C11.2415 46.4938 11.0332 46.4254 10.8818 46.2887C10.7321 46.152 10.6572 45.9575 10.6572 45.7052C10.6572 45.1649 11.0894 44.8817 11.9536 44.8556L12.4077 44.841V44.675C12.4077 44.465 12.3621 44.3104 12.271 44.2111C12.1815 44.1102 12.0374 44.0597 11.8389 44.0597C11.6159 44.0597 11.3636 44.1281 11.082 44.2648L10.9575 43.9547C11.0894 43.8831 11.2334 43.827 11.3896 43.7863C11.5475 43.7456 11.7054 43.7253 11.8633 43.7253C12.1823 43.7253 12.4183 43.7961 12.5713 43.9377C12.7259 44.0793 12.8032 44.3063 12.8032 44.6188V46.445H12.5029ZM11.5874 46.1593C11.8397 46.1593 12.0374 46.0902 12.1807 45.9518C12.3255 45.8135 12.3979 45.6198 12.3979 45.3708V45.1291L11.9927 45.1461C11.6704 45.1575 11.4377 45.208 11.2944 45.2975C11.1528 45.3854 11.082 45.5229 11.082 45.7101C11.082 45.8566 11.126 45.9681 11.2139 46.0446C11.3034 46.1211 11.4279 46.1593 11.5874 46.1593ZM14.71 46.4938C14.3226 46.4938 14.0223 46.375 13.8091 46.1374C13.5975 45.8981 13.4917 45.5604 13.4917 45.1242C13.4917 44.6766 13.5991 44.3307 13.814 44.0866C14.0304 43.8424 14.3381 43.7204 14.7368 43.7204C14.8654 43.7204 14.994 43.7342 15.1226 43.7619C15.2511 43.7895 15.3521 43.8221 15.4253 43.8595L15.3008 44.2038C15.2113 44.168 15.1136 44.1387 15.0078 44.1159C14.902 44.0915 14.8084 44.0793 14.7271 44.0793C14.1834 44.0793 13.9116 44.4259 13.9116 45.1193C13.9116 45.4481 13.9775 45.7003 14.1094 45.8761C14.2428 46.0519 14.4398 46.1398 14.7002 46.1398C14.9232 46.1398 15.1519 46.0918 15.3862 45.9958V46.3546C15.2072 46.4474 14.9818 46.4938 14.71 46.4938ZM16.4287 46.445H16.0234V43.7692H16.4287V46.445ZM15.9893 43.0441C15.9893 42.9513 16.012 42.8838 16.0576 42.8415C16.1032 42.7975 16.1602 42.7755 16.2285 42.7755C16.2936 42.7755 16.3498 42.7975 16.397 42.8415C16.4442 42.8854 16.4678 42.953 16.4678 43.0441C16.4678 43.1352 16.4442 43.2036 16.397 43.2492C16.3498 43.2931 16.2936 43.3151 16.2285 43.3151C16.1602 43.3151 16.1032 43.2931 16.0576 43.2492C16.012 43.2036 15.9893 43.1352 15.9893 43.0441ZM19.1094 46.0861H19.0874C18.9002 46.3579 18.6203 46.4938 18.2476 46.4938C17.8976 46.4938 17.625 46.3742 17.4297 46.1349C17.236 45.8957 17.1392 45.5555 17.1392 45.1144C17.1392 44.6733 17.2368 44.3307 17.4321 44.0866C17.6274 43.8424 17.8993 43.7204 18.2476 43.7204C18.6105 43.7204 18.8888 43.8522 19.0825 44.1159H19.1143L19.0972 43.923L19.0874 43.735V42.6461H19.4927V46.445H19.1631L19.1094 46.0861ZM18.2988 46.1544C18.5755 46.1544 18.7757 46.0796 18.8994 45.9298C19.0247 45.7785 19.0874 45.5351 19.0874 45.1999V45.1144C19.0874 44.7352 19.0239 44.465 18.897 44.3039C18.7716 44.1411 18.5706 44.0597 18.2939 44.0597C18.0563 44.0597 17.874 44.1525 17.7471 44.338C17.6217 44.522 17.5591 44.7824 17.5591 45.1193C17.5591 45.4611 17.6217 45.7191 17.7471 45.8932C17.8724 46.0674 18.0563 46.1544 18.2988 46.1544ZM22 46.445L21.9194 46.0641H21.8999C21.7664 46.2318 21.633 46.3457 21.4995 46.4059C21.3677 46.4645 21.2025 46.4938 21.0039 46.4938C20.7386 46.4938 20.5303 46.4254 20.3789 46.2887C20.2292 46.152 20.1543 45.9575 20.1543 45.7052C20.1543 45.1649 20.5864 44.8817 21.4507 44.8556L21.9048 44.841V44.675C21.9048 44.465 21.8592 44.3104 21.7681 44.2111C21.6785 44.1102 21.5345 44.0597 21.3359 44.0597C21.113 44.0597 20.8607 44.1281 20.5791 44.2648L20.4546 43.9547C20.5864 43.8831 20.7305 43.827 20.8867 43.7863C21.0446 43.7456 21.2025 43.7253 21.3604 43.7253C21.6794 43.7253 21.9154 43.7961 22.0684 43.9377C22.223 44.0793 22.3003 44.3063 22.3003 44.6188V46.445H22ZM21.0845 46.1593C21.3368 46.1593 21.5345 46.0902 21.6777 45.9518C21.8226 45.8135 21.895 45.6198 21.895 45.3708V45.1291L21.4897 45.1461C21.1675 45.1575 20.9347 45.208 20.7915 45.2975C20.6499 45.3854 20.5791 45.5229 20.5791 45.7101C20.5791 45.8566 20.623 45.9681 20.7109 46.0446C20.8005 46.1211 20.925 46.1593 21.0845 46.1593ZM24.959 46.0861H24.937C24.7498 46.3579 24.4699 46.4938 24.0972 46.4938C23.7472 46.4938 23.4746 46.3742 23.2793 46.1349C23.0856 45.8957 22.9888 45.5555 22.9888 45.1144C22.9888 44.6733 23.0864 44.3307 23.2817 44.0866C23.4771 43.8424 23.7489 43.7204 24.0972 43.7204C24.4601 43.7204 24.7384 43.8522 24.9321 44.1159H24.9639L24.9468 43.923L24.937 43.735V42.6461H25.3423V46.445H25.0127L24.959 46.0861ZM24.1484 46.1544C24.4251 46.1544 24.6253 46.0796 24.749 45.9298C24.8743 45.7785 24.937 45.5351 24.937 45.1999V45.1144C24.937 44.7352 24.8735 44.465 24.7466 44.3039C24.6213 44.1411 24.4202 44.0597 24.1436 44.0597C23.9059 44.0597 23.7236 44.1525 23.5967 44.338C23.4714 44.522 23.4087 44.7824 23.4087 45.1193C23.4087 45.4611 23.4714 45.7191 23.5967 45.8932C23.722 46.0674 23.9059 46.1544 24.1484 46.1544ZM27.2783 45.2902V44.9191H28.4771V45.2902H27.2783ZM31.5728 46.445H31.1577V43.2443H30.0273V42.8756H32.7031V43.2443H31.5728V46.445ZM34.312 46.4938C33.9165 46.4938 33.604 46.3734 33.3745 46.1325C33.1466 45.8916 33.0327 45.5571 33.0327 45.1291C33.0327 44.6977 33.1385 44.3551 33.3501 44.1012C33.5633 43.8473 33.849 43.7204 34.207 43.7204C34.5423 43.7204 34.8076 43.831 35.0029 44.0524C35.1982 44.2721 35.2959 44.5627 35.2959 44.924V45.1803H33.4526C33.4608 45.4945 33.5397 45.7329 33.6895 45.8957C33.8408 46.0584 34.0532 46.1398 34.3267 46.1398C34.6147 46.1398 34.8996 46.0796 35.1812 45.9591V46.3205C35.0379 46.3823 34.902 46.4263 34.7734 46.4523C34.6465 46.48 34.4927 46.4938 34.312 46.4938ZM34.2021 44.0597C33.9873 44.0597 33.8156 44.1297 33.687 44.2697C33.5601 44.4097 33.4852 44.6033 33.4624 44.8507H34.8613C34.8613 44.5952 34.8044 44.3999 34.6904 44.2648C34.5765 44.1281 34.4137 44.0597 34.2021 44.0597ZM33.9019 43.3542C33.98 43.2532 34.0638 43.1312 34.1533 42.9879C34.2445 42.8447 34.3161 42.7202 34.3682 42.6144H34.8613V42.6657C34.7897 42.7715 34.6831 42.9017 34.5415 43.0563C34.3999 43.2109 34.277 43.3306 34.1729 43.4152H33.9019V43.3542ZM37.21 43.7204C37.3288 43.7204 37.4354 43.7301 37.5298 43.7497L37.4736 44.1256C37.363 44.1012 37.2653 44.089 37.1807 44.089C36.9642 44.089 36.7786 44.1769 36.624 44.3527C36.471 44.5285 36.3945 44.7474 36.3945 45.0094V46.445H35.9893V43.7692H36.3237L36.3701 44.2648H36.3896C36.4889 44.0906 36.6086 43.9564 36.7485 43.862C36.8885 43.7676 37.0423 43.7204 37.21 43.7204ZM41.4409 46.445V44.7043C41.4409 44.491 41.3953 44.3315 41.3042 44.2257C41.2131 44.1183 41.0715 44.0646 40.8794 44.0646C40.6271 44.0646 40.4408 44.137 40.3203 44.2819C40.1999 44.4267 40.1396 44.6497 40.1396 44.9508V46.445H39.7344V44.7043C39.7344 44.491 39.6888 44.3315 39.5977 44.2257C39.5065 44.1183 39.3641 44.0646 39.1704 44.0646C38.9165 44.0646 38.7301 44.1411 38.6113 44.2941C38.4941 44.4455 38.4355 44.6945 38.4355 45.0412V46.445H38.0303V43.7692H38.3599L38.4258 44.1354H38.4453C38.5218 44.0052 38.6292 43.9035 38.7676 43.8302C38.9076 43.757 39.0638 43.7204 39.2363 43.7204C39.6546 43.7204 39.9281 43.8717 40.0566 44.1745H40.0762C40.1559 44.0345 40.2715 43.9238 40.4229 43.8424C40.5742 43.7611 40.7467 43.7204 40.9404 43.7204C41.2432 43.7204 41.4694 43.7985 41.6191 43.9547C41.7705 44.1094 41.8462 44.3576 41.8462 44.6994V46.445H41.4409ZM43.0889 46.445H42.6836V43.7692H43.0889V46.445ZM42.6494 43.0441C42.6494 42.9513 42.6722 42.8838 42.7178 42.8415C42.7633 42.7975 42.8203 42.7755 42.8887 42.7755C42.9538 42.7755 43.0099 42.7975 43.0571 42.8415C43.1043 42.8854 43.1279 42.953 43.1279 43.0441C43.1279 43.1352 43.1043 43.2036 43.0571 43.2492C43.0099 43.2931 42.9538 43.3151 42.8887 43.3151C42.8203 43.3151 42.7633 43.2931 42.7178 43.2492C42.6722 43.2036 42.6494 43.1352 42.6494 43.0441ZM45.7793 46.445V44.714C45.7793 44.4959 45.7297 44.3332 45.6304 44.2257C45.5311 44.1183 45.3757 44.0646 45.1641 44.0646C44.8841 44.0646 44.679 44.1403 44.5488 44.2917C44.4186 44.443 44.3535 44.6929 44.3535 45.0412V46.445H43.9482V43.7692H44.2778L44.3438 44.1354H44.3633C44.4463 44.0036 44.5627 43.9018 44.7124 43.8302C44.8621 43.757 45.029 43.7204 45.2129 43.7204C45.5352 43.7204 45.7777 43.7985 45.9404 43.9547C46.1032 44.1094 46.1846 44.3576 46.1846 44.6994V46.445H45.7793ZM49.3291 45.1046C49.3291 45.5408 49.2192 45.8818 48.9995 46.1276C48.7798 46.3717 48.4762 46.4938 48.0889 46.4938C47.8496 46.4938 47.6372 46.4377 47.4517 46.3253C47.2661 46.213 47.1229 46.0519 47.022 45.8419C46.9211 45.632 46.8706 45.3862 46.8706 45.1046C46.8706 44.6684 46.9797 44.3291 47.1978 44.0866C47.4159 43.8424 47.7186 43.7204 48.106 43.7204C48.4803 43.7204 48.7773 43.8449 48.9971 44.0939C49.2184 44.3429 49.3291 44.6798 49.3291 45.1046ZM47.2905 45.1046C47.2905 45.4464 47.3589 45.7069 47.4956 45.8859C47.6323 46.0649 47.8333 46.1544 48.0986 46.1544C48.3639 46.1544 48.5649 46.0657 48.7017 45.8883C48.84 45.7093 48.9092 45.4481 48.9092 45.1046C48.9092 44.7645 48.84 44.5065 48.7017 44.3307C48.5649 44.1533 48.3623 44.0646 48.0938 44.0646C47.8285 44.0646 47.6283 44.1517 47.4932 44.3258C47.3581 44.5 47.2905 44.7596 47.2905 45.1046ZM51.7681 45.715C51.7681 45.964 51.6753 46.1561 51.4897 46.2912C51.3042 46.4263 51.0438 46.4938 50.7085 46.4938C50.3537 46.4938 50.077 46.4377 49.8784 46.3253V45.9494C50.007 46.0145 50.1445 46.0657 50.291 46.1032C50.4391 46.1406 50.5815 46.1593 50.7183 46.1593C50.9299 46.1593 51.0926 46.126 51.2065 46.0592C51.3205 45.9909 51.3774 45.8875 51.3774 45.7492C51.3774 45.645 51.3319 45.5563 51.2407 45.4831C51.1512 45.4082 50.9754 45.3203 50.7134 45.2194C50.4644 45.1266 50.2869 45.0461 50.1812 44.9777C50.077 44.9077 49.9989 44.8288 49.9468 44.7409C49.8963 44.653 49.8711 44.548 49.8711 44.4259C49.8711 44.2078 49.9598 44.0361 50.1372 43.9108C50.3146 43.7838 50.5579 43.7204 50.8672 43.7204C51.1553 43.7204 51.4368 43.779 51.7119 43.8961L51.5679 44.2257C51.2993 44.1151 51.056 44.0597 50.8379 44.0597C50.6458 44.0597 50.501 44.0898 50.4033 44.1501C50.3057 44.2103 50.2568 44.2933 50.2568 44.3991C50.2568 44.4707 50.2747 44.5317 50.3105 44.5822C50.348 44.6326 50.4074 44.6807 50.4888 44.7262C50.5701 44.7718 50.7264 44.8377 50.9575 44.924C51.2749 45.0395 51.4889 45.1559 51.5996 45.2731C51.7119 45.3903 51.7681 45.5376 51.7681 45.715Z" fill="#4A4A4A"/>
</svg>
