<svg width="327" height="113" viewBox="0 0 327 113" fill="none" xmlns="http://www.w3.org/2000/svg">
<path d="M299.328 46.4139C281.724 45.9444 254.243 35.1644 230.11 24.1931C191.615 6.70162 159.257 12.3786 141.453 21.2808C123.648 30.183 94.4553 42.7974 94.4553 42.7974L41.3984 54.2034C25.6021 57.5938 13.6572 70.556 11.5533 86.5782L11.2838 88.6473C10.5362 94.3677 14.9873 99.436 20.7511 99.436H42.8067C41.1549 96.1412 40.2247 92.429 40.2247 88.5082C40.2247 74.9984 51.2221 64.001 64.7319 64.001C78.2417 64.001 89.2391 74.9984 89.2391 88.5082C89.2391 92.4377 88.3089 96.1499 86.6571 99.436H226.146C224.494 96.1412 223.564 92.429 223.564 88.5082C223.564 74.9984 234.561 64.001 248.071 64.001C261.581 64.001 272.578 74.9984 272.578 88.5082C272.578 92.4377 271.648 96.1499 269.996 99.436H302.232C308.517 99.436 313.603 94.3416 313.603 88.0648V61.0452C313.603 53.108 307.274 46.6225 299.337 46.4139H299.328Z" fill="url(#paint0_linear_715_10206)"/>
<g style="mix-blend-mode:multiply" opacity="0.29">
<path d="M29.5317 91.8728V94.9069H41.0681C40.7986 93.9158 40.59 92.9073 40.4509 91.8728H29.5317Z" fill="#4F8AE8"/>
</g>
<g style="mix-blend-mode:multiply" opacity="0.29">
<path d="M88.9957 91.8728C88.8566 92.9073 88.6479 93.9245 88.3784 94.9069H224.398C224.129 93.9158 223.92 92.9073 223.781 91.8728H88.9957Z" fill="#4F8AE8"/>
</g>
<g style="mix-blend-mode:multiply" opacity="0.29">
<path d="M310.152 91.8728H272.326C272.187 92.9073 271.978 93.9245 271.709 94.9069H310.152V91.8728Z" fill="#4F8AE8"/>
</g>
<g style="mix-blend-mode:multiply" opacity="0.29">
<path d="M42.6769 69.7822H18.0393C14.6662 74.6419 12.3972 80.3189 11.5713 86.4478L34.5136 81.449C46.5629 74.0595 42.6769 69.7822 42.6769 69.7822Z" fill="#4F8AE8"/>
</g>
<path d="M64.7233 112.146C77.7781 112.146 88.3611 101.563 88.3611 88.5082C88.3611 75.4534 77.7781 64.8704 64.7233 64.8704C51.6685 64.8704 41.0854 75.4534 41.0854 88.5082C41.0854 101.563 51.6685 112.146 64.7233 112.146Z" fill="url(#paint1_linear_715_10206)"/>
<path d="M81.3456 92.401C83.493 83.2239 77.7943 74.0436 68.6172 71.8961C59.4401 69.7487 50.2597 75.4475 48.1123 84.6246C45.9649 93.8017 51.6636 102.982 60.8408 105.129C70.0179 107.277 79.1982 101.578 81.3456 92.401Z" fill="url(#paint2_linear_715_10206)"/>
<path d="M65.6451 108.495C54.6217 108.495 45.6499 99.5231 45.6499 88.4996C45.6499 77.4762 54.6217 68.5044 65.6451 68.5044C76.6686 68.5044 85.6404 77.4762 85.6404 88.4996C85.6404 99.5231 76.6686 108.495 65.6451 108.495ZM65.6451 68.8435C54.8042 68.8435 45.989 77.6587 45.989 88.4996C45.989 99.3405 54.8042 108.156 65.6451 108.156C76.486 108.156 85.3013 99.3405 85.3013 88.4996C85.3013 77.6587 76.486 68.8435 65.6451 68.8435Z" fill="white"/>
<path d="M64.7236 102.192C57.1776 102.192 51.0312 96.0542 51.0312 88.4995C51.0312 80.9448 57.1689 74.8071 64.7236 74.8071C72.2784 74.8071 78.416 80.9448 78.416 88.4995C78.416 96.0542 72.2784 102.192 64.7236 102.192ZM64.7236 75.0419C57.2993 75.0419 51.266 81.0839 51.266 88.4995C51.266 95.9151 57.2993 101.957 64.7236 101.957C72.1479 101.957 78.1813 95.9238 78.1813 88.4995C78.1813 81.0752 72.1393 75.0419 64.7236 75.0419Z" fill="white"/>
<path d="M74.7997 88.5085C74.7997 94.0724 70.2877 98.5843 64.7238 98.5843C59.1599 98.5843 54.6479 94.0724 54.6479 88.5085C54.6479 82.9446 59.1599 78.4326 64.7238 78.4326C70.2877 78.4326 74.7997 82.9446 74.7997 88.5085Z" fill="url(#paint3_linear_715_10206)"/>
<path d="M80.9982 83.3705C80.946 83.2141 80.8938 83.0576 80.8417 82.9011L66.1582 86.5959L64.9237 71.4517C64.8542 71.4517 64.7933 71.4517 64.7238 71.4517C64.6542 71.4517 64.5934 71.4517 64.5238 71.4517L63.298 86.5698L48.6233 82.875C48.5711 83.0228 48.519 83.1706 48.4668 83.3271L62.1679 89.2648L53.4656 101.331C53.6308 101.479 53.796 101.618 53.9698 101.757L64.7846 90.9687L75.5473 101.705C75.7212 101.566 75.8863 101.418 76.0602 101.262L67.4101 89.2561L80.9982 83.3705Z" fill="white"/>
<path d="M69.1833 88.5084C69.1833 90.9687 67.1838 92.9682 64.7235 92.9682C62.2632 92.9682 60.2637 90.9687 60.2637 88.5084C60.2637 86.0481 62.2632 84.0486 64.7235 84.0486C67.1838 84.0486 69.1833 86.0481 69.1833 88.5084Z" fill="url(#paint4_linear_715_10206)"/>
<path d="M67.1663 88.7689C67.1663 90.0034 66.1665 91.0032 64.932 91.0032C63.6975 91.0032 62.6978 90.0034 62.6978 88.7689C62.6978 87.5344 63.6975 86.5347 64.932 86.5347C66.1665 86.5347 67.1663 87.5344 67.1663 88.7689Z" fill="white"/>
<path d="M62.4894 87.1693C62.8495 87.1693 63.1414 86.8774 63.1414 86.5173C63.1414 86.1572 62.8495 85.8652 62.4894 85.8652C62.1293 85.8652 61.8374 86.1572 61.8374 86.5173C61.8374 86.8774 62.1293 87.1693 62.4894 87.1693Z" fill="white"/>
<g style="mix-blend-mode:multiply" opacity="0.29">
<path d="M286.401 57.2288C286.401 57.2288 287.914 67.2872 298.138 69.1303H313.586V61.4886C313.586 60.0368 313.395 58.6284 313.038 57.2896C305.753 57.3418 286.401 57.2288 286.401 57.2288Z" fill="#4F8AE8"/>
</g>
<path d="M248.054 112.146C261.109 112.146 271.692 101.563 271.692 88.508C271.692 75.4531 261.109 64.8701 248.054 64.8701C234.999 64.8701 224.416 75.4531 224.416 88.508C224.416 101.563 234.999 112.146 248.054 112.146Z" fill="url(#paint5_linear_715_10206)"/>
<path d="M260.124 100.574C266.789 93.9095 266.789 83.1042 260.124 76.4397C253.46 69.7752 242.654 69.7752 235.99 76.4397C229.325 83.1042 229.325 93.9095 235.99 100.574C242.654 107.238 253.46 107.238 260.124 100.574Z" fill="url(#paint6_linear_715_10206)"/>
<path d="M248.976 108.495C237.952 108.495 228.98 99.5231 228.98 88.4996C228.98 77.4762 237.952 68.5044 248.976 68.5044C259.999 68.5044 268.971 77.4762 268.971 88.4996C268.971 99.5231 259.999 108.495 248.976 108.495ZM248.976 68.8435C238.135 68.8435 229.32 77.6587 229.32 88.4996C229.32 99.3405 238.135 108.156 248.976 108.156C259.817 108.156 268.632 99.3405 268.632 88.4996C268.632 77.6587 259.817 68.8435 248.976 68.8435Z" fill="white"/>
<path d="M248.054 102.192C240.508 102.192 234.361 96.0542 234.361 88.4995C234.361 80.9448 240.499 74.8071 248.054 74.8071C255.608 74.8071 261.746 80.9448 261.746 88.4995C261.746 96.0542 255.608 102.192 248.054 102.192ZM248.054 75.0419C240.629 75.0419 234.596 81.0839 234.596 88.4995C234.596 95.9151 240.638 101.957 248.054 101.957C255.469 101.957 261.511 95.9238 261.511 88.4995C261.511 81.0752 255.469 75.0419 248.054 75.0419Z" fill="white"/>
<path d="M248.054 98.5841C253.619 98.5841 258.13 94.073 258.13 88.5082C258.13 82.9435 253.619 78.4324 248.054 78.4324C242.489 78.4324 237.978 82.9435 237.978 88.5082C237.978 94.073 242.489 98.5841 248.054 98.5841Z" fill="url(#paint7_linear_715_10206)"/>
<path d="M264.328 83.3703C264.276 83.2138 264.224 83.0573 264.172 82.9008L249.488 86.5956L248.254 71.4514C248.184 71.4514 248.123 71.4514 248.054 71.4514C247.984 71.4514 247.923 71.4514 247.854 71.4514L246.628 86.5695L231.953 82.8748C231.901 83.0226 231.849 83.1704 231.797 83.3268L245.498 89.2645L236.796 101.331C236.961 101.479 237.126 101.618 237.3 101.757L248.115 90.9685L258.877 101.705C259.051 101.566 259.216 101.418 259.39 101.262L250.74 89.2558L264.328 83.3703Z" fill="white"/>
<path d="M252.514 88.5081C252.514 90.9684 250.514 92.968 248.054 92.968C245.594 92.968 243.594 90.9684 243.594 88.5081C243.594 86.0479 245.594 84.0483 248.054 84.0483C250.514 84.0483 252.514 86.0479 252.514 88.5081Z" fill="url(#paint8_linear_715_10206)"/>
<path d="M250.497 88.7689C250.497 90.0034 249.497 91.0032 248.263 91.0032C247.028 91.0032 246.028 90.0034 246.028 88.7689C246.028 87.5344 247.028 86.5347 248.263 86.5347C249.497 86.5347 250.497 87.5344 250.497 88.7689Z" fill="white"/>
<path d="M246.48 86.5173C246.48 86.8824 246.185 87.1693 245.828 87.1693C245.472 87.1693 245.176 86.8737 245.176 86.5173C245.176 86.1608 245.472 85.8652 245.828 85.8652C246.185 85.8652 246.48 86.1608 246.48 86.5173Z" fill="white"/>
<path d="M105.827 50.7867H276.542C276.542 50.7867 235.526 33.3387 220.59 26.862C205.655 20.3853 183.078 13.3522 159.179 22.3153C139.931 29.5309 117.302 40.311 109.234 44.2405C107.348 45.162 106.096 47.0137 105.94 49.1089L105.818 50.7867H105.827Z" fill="url(#paint9_linear_715_10206)"/>
<path d="M40.7643 69.8432H17.9958C14.953 74.2421 12.8231 79.3018 11.832 84.7614L33.6442 80.006C44.1461 73.564 40.7643 69.8345 40.7643 69.8345V69.8432Z" fill="url(#paint10_linear_715_10206)"/>
<path d="M33.6526 80.0061C35.5304 78.8585 36.9562 77.7892 38.0516 76.8242L13.3618 78.9889C12.7098 80.8493 12.2056 82.7793 11.8491 84.7615L33.6613 80.0061H33.6526Z" fill="url(#paint11_linear_715_10206)"/>
<path d="M19.1607 87.2302L11.4147 87.578L11.2756 88.656C10.98 90.9424 11.5103 93.1158 12.6231 94.9153H24.4638C25.2723 94.9153 25.7939 94.0547 25.4114 93.3331L23.464 89.6905C22.6207 88.1083 20.9429 87.152 19.1607 87.2389V87.2302Z" fill="url(#paint12_linear_715_10206)"/>
<path d="M289.252 57.2288C289.252 57.2288 290.6 66.2353 299.763 67.8871H313.594V61.0453C313.594 59.7412 313.421 58.4893 313.099 57.2809C306.579 57.3331 289.252 57.2288 289.252 57.2288Z" fill="url(#paint13_linear_715_10206)"/>
<path d="M313.586 88.0649V86.1089C301.398 89.0038 300.841 96.9759 300.972 99.4362H302.215C308.5 99.4362 313.586 94.3417 313.586 88.0649Z" fill="url(#paint14_linear_715_10206)"/>
<path d="M219.452 29.5137C206.168 23.7586 194.197 20.9592 182.852 20.9592C181.357 20.9592 179.861 21.0114 178.384 21.1157C177.288 21.194 176.445 22.1068 176.445 23.2022V45.8055C176.445 46.9617 177.384 47.9006 178.54 47.9006H222.738C223.894 47.9006 224.833 46.9617 224.833 45.8055V33.2085C224.833 32.3739 224.338 31.6176 223.564 31.2872C222.043 30.6352 220.66 30.0353 219.452 29.5137Z" fill="url(#paint15_linear_715_10206)"/>
<path d="M257.852 45.962C249.706 42.4846 240.039 38.3638 231.875 34.8603C230.493 34.2691 228.963 35.2776 228.963 36.7816V45.8055C228.963 46.9618 229.902 47.9007 231.058 47.9007H257.46C258.556 47.9007 258.869 46.3967 257.86 45.962H257.852Z" fill="url(#paint16_linear_715_10206)"/>
<path d="M110.504 46.84C110.008 47.0834 109.6 47.4486 109.304 47.9006H167.916C169.073 47.9006 170.011 46.9617 170.011 45.8055V24.6192C170.011 23.2544 168.725 22.2546 167.395 22.5936C164.943 23.2196 162.839 24.0368 160.196 25.0278C141.244 32.1305 119.128 42.6497 110.495 46.84H110.504Z" fill="url(#paint17_linear_715_10206)"/>
<g style="mix-blend-mode:multiply" opacity="0.29">
<path d="M90.561 86.1349H222.208C222.616 81.6838 224.147 77.5543 226.52 74.0334H86.249C88.6224 77.5543 90.1611 81.6838 90.561 86.1349Z" fill="#4F8AE8"/>
</g>
<path d="M173.428 18.5422H173.141V98.3493H173.428V18.5422Z" fill="white"/>
<path d="M97.6809 64.8617C99.4978 55.5857 102.871 49.4307 102.906 49.3698L102.654 49.2307C102.619 49.2916 99.2283 55.4814 97.4027 64.8009C95.7857 73.0337 95.1163 85.3873 100.68 98.3494H100.993C95.4032 85.4134 96.0726 73.0772 97.6809 64.8704V64.8617Z" fill="white"/>
<path d="M220.304 89.4558C219.895 84.3526 220.704 77.0587 226.85 71.2514L226.894 71.2079V29.6353H226.607V71.0775C220.417 76.9544 219.608 84.3265 220.017 89.4818C220.339 93.4461 221.408 96.741 222.008 98.3406H222.321C221.73 96.8105 220.625 93.4809 220.304 89.4471V89.4558Z" fill="white"/>
<path d="M160.796 61.6362C160.796 64.8355 158.206 67.4349 154.998 67.4349C151.79 67.4349 149.199 64.8442 149.199 61.6362C149.199 58.4283 151.79 55.8376 154.998 55.8376C158.206 55.8376 160.796 58.4283 160.796 61.6362Z" fill="#4C85F3"/>
<path d="M155.789 67.8347C152.511 67.8347 149.851 65.1744 149.851 61.8969C149.851 58.6195 152.511 55.9592 155.789 55.9592C159.066 55.9592 161.727 58.6195 161.727 61.8969C161.727 65.1744 159.066 67.8347 155.789 67.8347ZM155.789 56.2461C152.676 56.2461 150.138 58.7846 150.138 61.8969C150.138 65.0092 152.676 67.5478 155.789 67.5478C158.901 67.5478 161.44 65.0092 161.44 61.8969C161.44 58.7846 158.901 56.2461 155.789 56.2461Z" fill="white"/>
<path d="M162.805 58.8892H148.278V63.7315H162.805V58.8892Z" fill="url(#paint18_linear_715_10206)"/>
<path d="M162.805 58.8892H148.278V61.3321H162.805V58.8892Z" fill="url(#paint19_linear_715_10206)"/>
<path d="M220.626 61.6362C220.626 64.8355 218.035 67.4349 214.827 67.4349C211.619 67.4349 209.028 64.8442 209.028 61.6362C209.028 58.4283 211.619 55.8376 214.827 55.8376C218.035 55.8376 220.626 58.4283 220.626 61.6362Z" fill="#4C85F3"/>
<path d="M215.618 67.8347C212.34 67.8347 209.68 65.1744 209.68 61.8969C209.68 58.6195 212.34 55.9592 215.618 55.9592C218.895 55.9592 221.556 58.6195 221.556 61.8969C221.556 65.1744 218.895 67.8347 215.618 67.8347ZM215.618 56.2461C212.506 56.2461 209.967 58.7846 209.967 61.8969C209.967 65.0092 212.506 67.5478 215.618 67.5478C218.73 67.5478 221.269 65.0092 221.269 61.8969C221.269 58.7846 218.73 56.2461 215.618 56.2461Z" fill="white"/>
<path d="M222.634 58.8892H208.107V63.7315H222.634V58.8892Z" fill="url(#paint20_linear_715_10206)"/>
<path d="M222.634 58.8892H208.107V61.3321H222.634V58.8892Z" fill="url(#paint21_linear_715_10206)"/>
<path d="M110.313 40.2763L151.433 21.6025C152.129 21.2895 152.085 20.2811 151.355 20.029L147.365 18.6641C145.243 19.49 143.261 20.368 141.436 21.2808C123.631 30.1831 94.4381 42.7974 94.4381 42.7974L94.2295 42.8409C98.698 43.6407 106.4 42.0411 110.295 40.2763H110.313Z" fill="url(#paint22_linear_715_10206)"/>
<path d="M289.252 57.2288C289.252 57.2288 289.713 60.2889 291.913 63.1665H313.594V61.0453C313.594 59.7412 313.421 58.4806 313.099 57.2809C306.579 57.3331 289.252 57.2288 289.252 57.2288Z" fill="url(#paint23_linear_715_10206)"/>
<path d="M38.1734 70.1475C38.1734 70.0432 38.1647 69.9389 38.1473 69.8433H17.9956C17.4305 70.6605 16.9002 71.4951 16.396 72.3557H35.9652C37.1823 72.3557 38.1734 71.3646 38.1734 70.1475Z" fill="white"/>
<path d="M292.687 57.2461C292.73 58.3154 293.608 59.1761 294.695 59.1761H313.473C313.386 58.5327 313.264 57.8981 313.099 57.2808C308.396 57.3156 298.077 57.2809 292.687 57.2461Z" fill="white"/>
<path d="M116.937 47.9006H126.266L132.916 36.3816C128.291 38.4507 123.971 40.4415 120.224 42.1976L116.929 47.9006H116.937Z" fill="#282F72"/>
<path d="M150.425 28.8617C148.373 29.6963 146.321 30.557 144.287 31.4176L134.776 47.892H139.445L150.433 28.853L150.425 28.8617Z" fill="#282F72"/>
<path d="M168.438 22.5936C168.108 22.5067 167.76 22.498 167.404 22.5936C164.952 23.2196 162.848 24.0368 160.205 25.0279C158.867 25.5321 157.51 26.0537 156.146 26.584L143.835 47.9093H153.824L168.438 22.6023V22.5936Z" fill="#282F72"/>
<path d="M123.961 38.0942L132.029 37.3813C133.898 37.2162 135.515 39.9807 134.559 41.589L131.377 46.9269C130.96 47.6224 130.212 48.0484 129.403 48.0484H110.556C109.678 48.0484 108.878 48.5439 108.495 49.335L107.461 51.4475H103.41L103.523 51.1346C105.653 41.8151 120.362 38.4072 123.953 38.0942H123.961Z" fill="url(#paint24_linear_715_10206)"/>
<path d="M132.029 37.3813L123.961 38.0942C121.753 38.2942 115.337 39.6504 110.226 42.8409C114.338 41.0587 118.45 40.2328 120.128 40.085L128.195 39.3722C130.064 39.207 131.681 41.9716 130.725 43.5799L128.065 48.0484H129.412C130.221 48.0484 130.968 47.6224 131.386 46.9269L134.568 41.589C135.524 39.9807 133.898 37.2162 132.038 37.3813H132.029Z" fill="#282F72"/>
<path d="M110.904 45.1882L110.721 44.9622C110.782 44.9187 116.589 40.3806 127.256 41.7977L127.222 42.0846C121.719 41.3543 117.572 42.2324 115.068 43.1017C112.356 44.0406 110.921 45.1708 110.904 45.1795V45.1882Z" fill="white"/>
<path d="M191.841 21.533L177.001 47.2312C177.384 47.6398 177.923 47.9006 178.532 47.9006H185.947L200.292 23.0543C197.423 22.3849 194.606 21.8807 191.841 21.533Z" fill="#282F72"/>
<path d="M211.541 26.384C210.228 25.9146 208.924 25.4799 207.637 25.0713L194.458 47.9006H199.126L211.55 26.384H211.541Z" fill="#282F72"/>
<path d="M223.19 31.1307C221.817 30.5396 220.556 29.9919 219.452 29.5137C218.009 28.8878 216.574 28.2966 215.157 27.7402L203.517 47.9006H213.506L223.19 31.1307Z" fill="#282F72"/>
<path d="M162.431 93.4028H101.35V93.6897H162.431V93.4028Z" fill="url(#paint25_linear_715_10206)"/>
<path d="M216.27 93.4028H179.436V93.6897H216.27V93.4028Z" fill="url(#paint26_linear_715_10206)"/>
<path d="M257.851 45.9619C253.513 44.1102 248.749 42.0759 244.002 40.0503L236.152 47.9006H257.451C258.547 47.9006 258.859 46.3966 257.851 45.9619Z" fill="#282F72"/>
<path d="M158.601 30.5318L151.376 43.8611L151.628 43.9978L158.853 30.6685L158.601 30.5318Z" fill="white"/>
<path d="M217.969 31.7566L210.744 45.0859L210.996 45.2226L218.222 31.8933L217.969 31.7566Z" fill="white"/>
<path d="M95.5166 14.3174L96.9684 19.6205L102.272 21.0723L96.9684 22.5241L95.5166 27.8272L94.0648 22.5241L88.7617 21.0723L94.0648 19.6205L95.5166 14.3174Z" fill="url(#paint27_linear_715_10206)"/>
<path d="M200.561 0.798828L201.439 3.98068L204.612 4.85004L201.439 5.7194L200.561 8.90125L199.692 5.7194L196.51 4.85004L199.692 3.98068L200.561 0.798828Z" fill="url(#paint28_linear_715_10206)"/>
<path d="M284.437 26.3059L285.888 31.609L291.191 33.0608L285.888 34.5126L284.437 39.807L282.985 34.5126L277.682 33.0608L282.985 31.609L284.437 26.3059Z" fill="url(#paint29_linear_715_10206)"/>
<path d="M39.4689 41.45L40.5556 45.4142L44.5199 46.5009L40.5556 47.5876L39.4689 51.5519L38.3822 47.5876L34.418 46.5009L38.3822 45.4142L39.4689 41.45Z" fill="url(#paint30_linear_715_10206)"/>
<path d="M323.549 75.5984L324.088 77.5805L326.07 78.1282L324.088 78.6672L323.549 80.6494L323.001 78.6672L321.019 78.1282L323.001 77.5805L323.549 75.5984Z" fill="url(#paint31_linear_715_10206)"/>
<path d="M2.52983 73.5815L3.06883 75.5637L5.05097 76.1114L3.06883 76.6504L2.52983 78.6325L1.98213 76.6504L0 76.1114L1.98213 75.5637L2.52983 73.5815Z" fill="url(#paint32_linear_715_10206)"/>
<path d="M59.612 14.2825L60.264 16.6819L62.6634 17.3339L60.264 17.9946L59.612 20.3941L58.9513 17.9946L56.5605 17.3339L58.9513 16.6819L59.612 14.2825Z" fill="url(#paint33_linear_715_10206)"/>
<path d="M133.864 7.08423L134.298 8.69255L135.907 9.13593L134.298 9.57928L133.864 11.1876L133.42 9.57928L131.812 9.13593L133.42 8.69255L133.864 7.08423Z" fill="url(#paint34_linear_715_10206)"/>
<path d="M241.099 8.44043L242.099 12.083L245.741 13.0828L242.099 14.0826L241.099 17.7252L240.108 14.0826L236.465 13.0828L240.108 12.083L241.099 8.44043Z" fill="url(#paint35_linear_715_10206)"/>
<defs>
<linearGradient id="paint0_linear_715_10206" x1="121.24" y1="35.7121" x2="235.743" y2="143.269" gradientUnits="userSpaceOnUse">
<stop stop-color="#5EA4FB"/>
<stop offset="1" stop-color="#0F75F5"/>
</linearGradient>
<linearGradient id="paint1_linear_715_10206" x1="64.7233" y1="34.5559" x2="64.7233" y2="144.286" gradientUnits="userSpaceOnUse">
<stop stop-color="#1E224F"/>
<stop offset="0.85" stop-color="#25297A"/>
</linearGradient>
<linearGradient id="paint2_linear_715_10206" x1="47.6651" y1="88.5116" x2="81.7961" y2="88.5116" gradientUnits="userSpaceOnUse">
<stop stop-color="#CDCDCD"/>
<stop offset="1" stop-color="#ADADAD"/>
</linearGradient>
<linearGradient id="paint3_linear_715_10206" x1="64.7238" y1="50.5349" x2="64.7238" y2="146.112" gradientUnits="userSpaceOnUse">
<stop stop-color="#878686"/>
<stop offset="1" stop-color="#ADADAD"/>
</linearGradient>
<linearGradient id="paint4_linear_715_10206" x1="60.2637" y1="88.5084" x2="69.1833" y2="88.5084" gradientUnits="userSpaceOnUse">
<stop stop-color="#1E224F"/>
<stop offset="0.85" stop-color="#25297A"/>
</linearGradient>
<linearGradient id="paint5_linear_715_10206" x1="248.054" y1="-287.898" x2="248.054" y2="-287.898" gradientUnits="userSpaceOnUse">
<stop stop-color="#1E224F"/>
<stop offset="0.85" stop-color="#25297A"/>
</linearGradient>
<linearGradient id="paint6_linear_715_10206" x1="230.995" y1="-287.898" x2="265.126" y2="-287.898" gradientUnits="userSpaceOnUse">
<stop stop-color="#CDCDCD"/>
<stop offset="1" stop-color="#ADADAD"/>
</linearGradient>
<linearGradient id="paint7_linear_715_10206" x1="248.054" y1="-287.897" x2="248.054" y2="-287.897" gradientUnits="userSpaceOnUse">
<stop stop-color="#878686"/>
<stop offset="1" stop-color="#ADADAD"/>
</linearGradient>
<linearGradient id="paint8_linear_715_10206" x1="243.594" y1="88.5081" x2="252.514" y2="88.5081" gradientUnits="userSpaceOnUse">
<stop stop-color="#1E224F"/>
<stop offset="0.85" stop-color="#25297A"/>
</linearGradient>
<linearGradient id="paint9_linear_715_10206" x1="188.502" y1="-11.9287" x2="193.023" y2="93.6461" gradientUnits="userSpaceOnUse">
<stop stop-color="#2B81D1"/>
<stop offset="1" stop-color="#0B2185"/>
</linearGradient>
<linearGradient id="paint10_linear_715_10206" x1="11.8407" y1="77.3023" x2="41.2859" y2="77.3023" gradientUnits="userSpaceOnUse">
<stop offset="0.02" stop-color="#E0C236"/>
<stop offset="1" stop-color="#E9982E"/>
</linearGradient>
<linearGradient id="paint11_linear_715_10206" x1="11.8404" y1="80.7972" x2="38.0429" y2="80.7972" gradientUnits="userSpaceOnUse">
<stop stop-color="#DFA15E"/>
<stop offset="1" stop-color="#D63D3A"/>
</linearGradient>
<linearGradient id="paint12_linear_715_10206" x1="11.1974" y1="91.0641" x2="25.5418" y2="91.0641" gradientUnits="userSpaceOnUse">
<stop stop-color="#2B81D1"/>
<stop offset="1" stop-color="#0B2185"/>
</linearGradient>
<linearGradient id="paint13_linear_715_10206" x1="289.252" y1="62.5579" x2="313.586" y2="62.5579" gradientUnits="userSpaceOnUse">
<stop stop-color="#DFA15E"/>
<stop offset="1" stop-color="#D63D3A"/>
</linearGradient>
<linearGradient id="paint14_linear_715_10206" x1="300.285" y1="76.346" x2="308.187" y2="94.8894" gradientUnits="userSpaceOnUse">
<stop stop-color="#2B81D1"/>
<stop offset="1" stop-color="#0B2185"/>
</linearGradient>
<linearGradient id="paint15_linear_715_10206" x1="176.445" y1="34.4343" x2="224.825" y2="34.4343" gradientUnits="userSpaceOnUse">
<stop stop-color="#1E224F"/>
<stop offset="0.85" stop-color="#25297A"/>
</linearGradient>
<linearGradient id="paint16_linear_715_10206" x1="228.963" y1="41.2936" x2="258.469" y2="41.2936" gradientUnits="userSpaceOnUse">
<stop stop-color="#1E224F"/>
<stop offset="0.85" stop-color="#25297A"/>
</linearGradient>
<linearGradient id="paint17_linear_715_10206" x1="109.304" y1="35.208" x2="170.011" y2="35.208" gradientUnits="userSpaceOnUse">
<stop stop-color="#1E224F"/>
<stop offset="0.85" stop-color="#25297A"/>
</linearGradient>
<linearGradient id="paint18_linear_715_10206" x1="148.278" y1="61.3147" x2="162.805" y2="61.3147" gradientUnits="userSpaceOnUse">
<stop stop-color="#5EA4FB"/>
<stop offset="1" stop-color="#0F75F5"/>
</linearGradient>
<linearGradient id="paint19_linear_715_10206" x1="148.278" y1="60.115" x2="162.805" y2="60.115" gradientUnits="userSpaceOnUse">
<stop stop-color="#8AC7FC"/>
<stop offset="1" stop-color="#58AFFC"/>
</linearGradient>
<linearGradient id="paint20_linear_715_10206" x1="208.107" y1="61.3147" x2="222.634" y2="61.3147" gradientUnits="userSpaceOnUse">
<stop stop-color="#5EA4FB"/>
<stop offset="1" stop-color="#0F75F5"/>
</linearGradient>
<linearGradient id="paint21_linear_715_10206" x1="208.107" y1="-287.897" x2="222.634" y2="-287.897" gradientUnits="userSpaceOnUse">
<stop stop-color="#8AC7FC"/>
<stop offset="1" stop-color="#58AFFC"/>
</linearGradient>
<linearGradient id="paint22_linear_715_10206" x1="94.2469" y1="30.8611" x2="151.937" y2="30.8611" gradientUnits="userSpaceOnUse">
<stop stop-color="#1E224F"/>
<stop offset="0.85" stop-color="#25297A"/>
</linearGradient>
<linearGradient id="paint23_linear_715_10206" x1="289.252" y1="60.1933" x2="313.586" y2="60.1933" gradientUnits="userSpaceOnUse">
<stop offset="0.02" stop-color="#E0C236"/>
<stop offset="1" stop-color="#E9982E"/>
</linearGradient>
<linearGradient id="paint24_linear_715_10206" x1="103.41" y1="44.4144" x2="134.846" y2="44.4144" gradientUnits="userSpaceOnUse">
<stop stop-color="#1E224F"/>
<stop offset="0.85" stop-color="#25297A"/>
</linearGradient>
<linearGradient id="paint25_linear_715_10206" x1="101.35" y1="93.5506" x2="162.431" y2="93.5506" gradientUnits="userSpaceOnUse">
<stop stop-color="#2B81D1"/>
<stop offset="1" stop-color="#0B2185"/>
</linearGradient>
<linearGradient id="paint26_linear_715_10206" x1="179.436" y1="93.5506" x2="216.27" y2="93.5506" gradientUnits="userSpaceOnUse">
<stop stop-color="#2B81D1"/>
<stop offset="1" stop-color="#0B2185"/>
</linearGradient>
<linearGradient id="paint27_linear_715_10206" x1="88.7617" y1="21.0723" x2="102.272" y2="21.0723" gradientUnits="userSpaceOnUse">
<stop offset="0.02" stop-color="#E0C236"/>
<stop offset="1" stop-color="#E9982E"/>
</linearGradient>
<linearGradient id="paint28_linear_715_10206" x1="196.51" y1="4.85004" x2="204.612" y2="4.85004" gradientUnits="userSpaceOnUse">
<stop offset="0.02" stop-color="#E0C236"/>
<stop offset="1" stop-color="#E9982E"/>
</linearGradient>
<linearGradient id="paint29_linear_715_10206" x1="277.682" y1="33.0608" x2="291.191" y2="33.0608" gradientUnits="userSpaceOnUse">
<stop offset="0.02" stop-color="#E0C236"/>
<stop offset="1" stop-color="#E9982E"/>
</linearGradient>
<linearGradient id="paint30_linear_715_10206" x1="34.418" y1="46.5009" x2="44.5199" y2="46.5009" gradientUnits="userSpaceOnUse">
<stop offset="0.02" stop-color="#E0C236"/>
<stop offset="1" stop-color="#E9982E"/>
</linearGradient>
<linearGradient id="paint31_linear_715_10206" x1="321.019" y1="78.1282" x2="326.07" y2="78.1282" gradientUnits="userSpaceOnUse">
<stop offset="0.02" stop-color="#E0C236"/>
<stop offset="1" stop-color="#E9982E"/>
</linearGradient>
<linearGradient id="paint32_linear_715_10206" x1="0" y1="76.1114" x2="5.05097" y2="76.1114" gradientUnits="userSpaceOnUse">
<stop offset="0.02" stop-color="#E0C236"/>
<stop offset="1" stop-color="#E9982E"/>
</linearGradient>
<linearGradient id="paint33_linear_715_10206" x1="56.5605" y1="17.3339" x2="62.6634" y2="17.3339" gradientUnits="userSpaceOnUse">
<stop offset="0.02" stop-color="#E0C236"/>
<stop offset="1" stop-color="#E9982E"/>
</linearGradient>
<linearGradient id="paint34_linear_715_10206" x1="131.812" y1="9.13591" x2="135.907" y2="9.13591" gradientUnits="userSpaceOnUse">
<stop offset="0.02" stop-color="#E0C236"/>
<stop offset="1" stop-color="#E9982E"/>
</linearGradient>
<linearGradient id="paint35_linear_715_10206" x1="236.465" y1="13.0828" x2="245.741" y2="13.0828" gradientUnits="userSpaceOnUse">
<stop offset="0.02" stop-color="#E0C236"/>
<stop offset="1" stop-color="#E9982E"/>
</linearGradient>
</defs>
</svg>
