<svg width="94" height="34" viewBox="0 0 94 34" fill="none" xmlns="http://www.w3.org/2000/svg">
<path fill-rule="evenodd" clip-rule="evenodd" d="M20.273 33.7856V27.9046C20.273 27.0663 20.273 24.523 17.5176 24.523C15.7848 24.523 14.6065 25.7164 14.6065 27.8862V33.7856H12.5332V19.345L14.6065 19.3495V24.1143H14.6485C15.645 22.6683 17.3002 22.6683 17.7362 22.6683C19.4534 22.6683 20.8493 23.3906 21.6477 24.6023C22.085 25.3058 22.3279 26.1669 22.3419 27.3777V33.7856H20.273Z" fill="white"/>
<path d="M23.7729 33.9106H25.7313V23.0295H23.7729V33.9106ZM23.7729 21.7735H25.7313V19.3774H23.7729V21.7735Z" fill="white"/>
<path fill-rule="evenodd" clip-rule="evenodd" d="M27.2549 33.9106H29.2132V19.3774H27.2549V33.9106Z" fill="white"/>
<path fill-rule="evenodd" clip-rule="evenodd" d="M91.6822 20.3465C83.4433 13.0018 68.8559 12.3774 68.7137 12.3753L68.0563 12.3585L67.5722 11.9276C67.478 11.8467 57.9737 3.48064 44.7845 3.48064C29.0546 3.48064 18.3727 14.942 18.2665 15.0619L17.6682 15.7007L0.979004 14.1354L1.50407 10.7451L16.2445 12.0813C18.9083 9.4886 29.5227 0 44.7845 0C57.7565 0 67.2235 7.1177 69.4627 8.93449C72.5525 9.11839 85.7271 10.3468 93.9998 17.7157L91.6822 20.3465Z" fill="white"/>
<path fill-rule="evenodd" clip-rule="evenodd" d="M56.9062 23.2532V28.8806C56.9062 31.4526 58.1221 32.1276 59.6578 32.1276C61.3731 32.1276 62.5481 31.0958 62.5481 28.8263V23.2532H64.6252V33.6448H62.7326V32.5157H62.6911C62.1333 33.4203 60.8325 33.9108 59.4401 33.9108C58.1808 33.9108 57.0825 33.5342 56.2892 32.8813C55.3681 32.1276 54.8335 30.9677 54.8335 28.8806V23.2532H56.9062Z" fill="white"/>
<path fill-rule="evenodd" clip-rule="evenodd" d="M8.54039 26.8896C8.21699 26.2512 7.43912 24.9881 5.53161 24.9881C2.93241 24.9881 2.00975 27.033 2.00975 28.5732C2.00975 30.3283 3.18209 32.1748 5.48922 32.1748C6.99758 32.1748 8.01765 31.3544 8.52013 30.3084H10.7708C9.96023 32.5568 7.87333 33.9108 5.48922 33.9108C1.97266 33.9108 0 31.1881 0 28.5732C0 25.8251 2.12711 23.2532 5.50776 23.2532C8.54039 23.2532 10.3658 25.3894 10.7708 26.8896H8.54039Z" fill="white"/>
<path d="M39.1462 27.9521C39.0494 26.4717 37.6404 24.9915 35.7397 24.9915C33.8347 24.9915 32.4283 26.4717 32.3335 27.9521H39.1462ZM32.3335 29.4147C32.8286 31.3707 34.4645 32.1733 35.7979 32.1733C37.2605 32.1733 38.3257 31.3504 38.8013 30.475H40.7817C39.7729 33.0869 37.3551 33.9108 35.7197 33.9108C32.7327 33.9108 30.354 31.4427 30.354 28.5733C30.354 25.54 32.7888 23.2532 35.7593 23.2532C38.6144 23.2532 41.106 25.4846 41.1248 28.4456C41.1248 28.7744 41.0881 29.287 41.0675 29.4147H32.3335Z" fill="white"/>
<path d="M47.4883 24.9866C45.1432 24.9866 44.0092 27.0177 44.0092 28.6048C44.0092 30.4374 45.4542 32.173 47.4688 32.173C49.4681 32.173 51.0091 30.5428 51.0091 28.6048C51.0091 26.449 49.452 24.9866 47.4883 24.9866ZM50.9724 33.6517V32.0773H50.938C50.204 33.3233 48.8683 33.9108 47.4883 33.9108C44.0652 33.9108 42.104 31.2943 42.104 28.6284C42.104 26.1549 43.8429 23.2532 47.4883 23.2532C48.9037 23.2532 50.204 23.8335 50.938 24.9479H50.9724V23.5244H52.8748V33.6517H50.9724Z" fill="white"/>
<path fill-rule="evenodd" clip-rule="evenodd" d="M85.7105 26.1195C85.7303 25.709 86.0851 24.8849 87.3441 24.8849C88.6107 24.8849 89.0307 25.9311 89.0824 26.2689L90.9761 26.2753C90.9761 25.4834 90.1402 23.2532 87.3585 23.2532C84.5818 23.2532 83.9388 25.1626 83.8955 26.0495C83.7428 29.3441 89.341 28.7596 89.2451 30.8975C89.2272 31.2953 88.8307 32.2535 87.2191 32.2535C85.6411 32.2535 85.1415 30.9822 85.1035 30.4689H83.229C83.3319 31.4636 84.066 33.9108 87.2446 33.9108C90.4145 33.9108 91.0279 31.7228 91.059 30.9102C91.217 27.4765 85.6411 27.6866 85.7105 26.1195Z" fill="white"/>
<path d="M77.3564 24.9866C75.0523 24.9866 73.5198 26.7569 73.5198 28.5746C73.5198 30.3965 75.0719 32.173 77.3564 32.173C79.5585 32.173 81.1898 30.4728 81.1898 28.5505C81.1898 26.7569 79.6543 24.9866 77.3564 24.9866ZM77.3564 33.9108C73.6996 33.9108 71.479 31.0772 71.479 28.5121C71.479 25.7531 73.9727 23.2532 77.3564 23.2532C80.6634 23.2532 83.229 25.6626 83.229 28.5505C83.229 31.0187 81.0477 33.9108 77.3564 33.9108Z" fill="white"/>
<path fill-rule="evenodd" clip-rule="evenodd" d="M69.6032 33.9106H67.4602V24.896H65.604V23.0304H67.4602V19.3774H69.6032V23.0304H71.479V24.896H69.6032V33.9106Z" fill="white"/>
</svg>
