<svg width="150" height="45" viewBox="0 0 150 45" fill="none" xmlns="http://www.w3.org/2000/svg">
<path d="M53.0584 0.375835C53.0125 0.128604 52.7791 -0.0387053 52.5319 0.0077541L10.915 7.77809C3.17757 9.22248 -1.74824 17.062 0.580543 24.814C2.4804 31.1378 8.58788 35.0512 15.1317 34.1709C22.107 33.2323 26.9886 27.1608 26.7231 20.4181C26.7178 20.2934 26.8033 20.1839 26.9258 20.1609L41.3368 17.4701C42.9731 17.1648 44.3262 16.2257 45.1965 14.9558C46.0657 13.6878 46.4526 12.0858 46.1506 10.457C46.105 10.2097 45.8716 10.0427 45.6243 10.0889L23.7273 14.1773C21.2154 14.6461 19.6535 17.0882 20.1422 19.5962C20.1455 19.6139 20.1491 19.6322 20.1524 19.6501C20.2627 20.2425 20.2951 20.8315 20.2561 21.4062C20.0349 24.4634 17.7882 27.1118 14.6351 27.7006C10.7809 28.4202 7.07546 25.7833 6.53122 21.8547C6.02155 18.1761 8.63931 14.7841 12.29 14.1024L17.5399 13.122L48.2443 7.38927C49.8806 7.08369 51.2338 6.14454 52.1043 4.87438C52.9729 3.60698 53.3609 2.0091 53.0584 0.375835Z" fill="#155892"/>
<path d="M85.5388 40.4234C83.4108 40.4234 81.806 38.7281 81.806 36.4801C81.806 34.3029 83.4456 32.5977 85.5388 32.5977C87.5979 32.5977 89.2107 34.3164 89.2107 36.5105C89.2107 38.7411 87.632 40.4234 85.5388 40.4234ZM85.5084 28.5759C80.8588 28.5759 77.4839 31.9509 77.4839 36.6004C77.4839 41.1457 80.8713 44.4449 85.5388 44.4449C90.0962 44.4449 93.5331 41.0337 93.5331 36.5105C93.5331 31.9871 90.0832 28.5759 85.5084 28.5759Z" fill="#155892"/>
<path d="M105.48 29.2941C105.48 29.1802 105.387 29.087 105.273 29.087H100.779V28.3918C100.779 27.4477 101.332 26.8841 102.257 26.8841H103.983C105.638 26.8841 106.985 25.5373 106.985 23.8819C106.985 23.768 106.892 23.675 106.778 23.675H102.106C100.018 23.675 98.9005 23.9687 97.8344 24.7975C96.9594 25.4975 96.4572 26.7422 96.4572 28.2112V29.087H95.0101C94.8964 29.087 94.8032 29.1802 94.8032 29.2941V32.0895C94.8032 32.2039 94.8964 32.2966 95.0101 32.2966H96.4572V43.7262C96.4572 43.8404 96.5502 43.9336 96.6638 43.9336H100.572C100.686 43.9336 100.779 43.8404 100.779 43.7262V32.2966H102.478C104.133 32.2966 105.48 30.9495 105.48 29.2941Z" fill="#155892"/>
<path d="M139.309 38.4087H135.323C135.257 38.4087 135.192 38.4447 135.153 38.503C134.255 39.8487 133.268 40.4234 131.856 40.4234C129.728 40.4234 128.184 38.8028 128.184 36.5705C128.184 34.2686 129.728 32.5977 131.856 32.5977C133.3 32.5977 134.527 33.3405 135.14 34.5847C135.175 34.6577 135.245 34.7028 135.32 34.7028H139.289C139.355 34.7028 139.417 34.6721 139.458 34.6187C139.498 34.5675 139.511 34.5037 139.496 34.4436C138.593 30.934 135.463 28.5759 131.706 28.5759C127.314 28.5759 123.869 32.0424 123.862 36.4674C123.856 40.6338 127.225 44.2065 131.371 44.4319C135.134 44.6429 138.476 42.2679 139.513 38.6723C139.531 38.6114 139.518 38.547 139.479 38.495C139.438 38.44 139.376 38.4087 139.309 38.4087Z" fill="#155892"/>
<path d="M113.277 40.4231C111.149 40.4231 109.544 38.7279 109.544 36.4799C109.544 34.3026 111.183 32.5975 113.277 32.5975C115.336 32.5975 116.949 34.3162 116.949 36.5103C116.949 38.7409 115.37 40.4231 113.277 40.4231ZM121.593 29.087H117.955C117.842 29.087 117.749 29.1802 117.749 29.2941V30.1772L117.599 30.0682C116.26 29.092 114.756 28.5757 113.246 28.5757C108.597 28.5757 105.222 31.9506 105.222 36.6002C105.222 41.1454 108.609 44.4446 113.277 44.4446C114.772 44.4446 116.267 43.9305 117.599 42.9574L117.749 42.8484V43.7259C117.749 43.8401 117.842 43.9333 117.955 43.9333H121.593C121.707 43.9333 121.8 43.8401 121.8 43.7259V29.2941C121.8 29.1802 121.707 29.087 121.593 29.087Z" fill="#155892"/>
<path d="M65.6516 29.0872H61.7435C61.6293 29.0872 61.5364 29.1804 61.5364 29.2943V37.3821C61.5364 39.3146 60.5707 40.4233 58.8865 40.4233C57.1341 40.4233 56.3866 39.514 56.3866 37.3821V29.2943C56.3866 29.1804 56.2934 29.0872 56.1797 29.0872H52.2713C52.1574 29.0872 52.0645 29.1804 52.0645 29.2943V37.9839C52.0645 40.3713 52.3501 41.3596 53.3952 42.5836C54.4798 43.8181 55.9325 44.4448 57.7134 44.4448C59.6636 44.4448 60.8981 43.7924 61.5986 42.3917L61.7767 42.0355V43.7263C61.7767 43.8405 61.8699 43.9337 61.9838 43.9337H65.6516C65.7656 43.9337 65.8585 43.8405 65.8585 43.7263V29.2943C65.8585 29.1804 65.7656 29.0872 65.6516 29.0872Z" fill="#155892"/>
<path d="M40.7463 40.4234C38.6183 40.4234 37.0135 38.7281 37.0135 36.4801C37.0135 34.3029 38.6531 32.5977 40.7463 32.5977C42.8057 32.5977 44.4185 34.3164 44.4185 36.5105C44.4185 38.7411 42.8397 40.4234 40.7463 40.4234ZM49.0631 29.0873H45.4254C45.3115 29.0873 45.2186 29.1805 45.2186 29.2944V30.1774L45.069 30.0684C43.7302 29.0922 42.2255 28.5759 40.7162 28.5759C36.0664 28.5759 32.6914 31.9509 32.6914 36.6004C32.6914 41.1457 36.0791 44.4449 40.7463 44.4449C42.2421 44.4449 43.7369 43.9308 45.069 42.9576L45.2186 42.8486V43.7261C45.2186 43.8403 45.3115 43.9335 45.4254 43.9335H49.0631C49.177 43.9335 49.27 43.8403 49.27 43.7261V29.2944C49.27 29.1805 49.177 29.0873 49.0631 29.0873Z" fill="#155892"/>
<path d="M77.5517 29.2945C77.5517 29.1806 77.4585 29.0871 77.3448 29.0871H74.0786V24.2728C74.0786 24.1588 73.9854 24.0659 73.8717 24.0659H71.9782C70.7564 24.0659 69.7567 25.0656 69.7567 26.2874V29.0871H67.7687C67.6547 29.0871 67.5615 29.1806 67.5615 29.2943V32.0896C67.5615 32.2038 67.655 32.2967 67.7689 32.2967H69.7567V43.7265C69.7567 43.8408 69.8491 43.9337 69.9636 43.9337H73.8714C73.9859 43.9337 74.0786 43.8408 74.0786 43.7263V32.2967H74.5786C74.5824 32.2967 74.5844 32.2934 74.588 32.2931C76.2251 32.2718 77.5517 30.9364 77.5517 29.2945Z" fill="#155892"/>
<path d="M149.793 29.0871H146.527V24.2728C146.527 24.1588 146.434 24.0659 146.32 24.0659H144.427C143.205 24.0659 142.205 25.0656 142.205 26.2874V29.0871H140.217C140.103 29.0871 140.01 29.1806 140.01 29.2943V32.0896C140.01 32.2038 140.103 32.2967 140.217 32.2967H142.205V43.7265C142.205 43.8408 142.298 43.9337 142.412 43.9337H146.32C146.434 43.9337 146.527 43.8408 146.527 43.7263V32.2967H147.027C147.031 32.2967 147.033 32.2934 147.036 32.2931C148.674 32.2718 150 30.9364 150 29.2945C150 29.1806 149.907 29.0871 149.793 29.0871Z" fill="#155892"/>
</svg>
