<svg width="100" height="38" viewBox="0 0 100 38" fill="none" xmlns="http://www.w3.org/2000/svg">
<path d="M74.4441 37.0266C64.5545 37.0266 56.5083 28.9777 56.5083 19.0842C56.5083 9.19399 64.5545 1.14783 74.4441 1.14783C84.3387 1.14783 92.3882 9.19399 92.3882 19.0842C92.3882 28.9777 84.3387 37.0266 74.4441 37.0266Z" fill="#FFDE00"/>
<path d="M74.4444 0.600231C64.2526 0.600231 55.9612 8.89216 55.9612 19.084C55.9612 29.2796 64.2526 37.5737 74.4444 37.5737C84.6406 37.5737 92.9352 29.2796 92.9352 19.084C92.9352 8.89216 84.6406 0.600231 74.4444 0.600231ZM74.4444 1.69495C84.0374 1.69495 91.8405 9.49535 91.8405 19.084C91.8405 28.6764 84.0374 36.479 74.4444 36.479C64.8574 36.479 57.0559 28.6764 57.0559 19.084C57.0559 9.49535 64.8574 1.69495 74.4444 1.69495Z" fill="#F2F2F2"/>
<path d="M2.48416 28.738L2.34623 28.3954C1.15244 25.4309 0.547607 22.2989 0.547607 19.0859C0.547607 15.8713 1.15244 12.7404 2.34623 9.78029L2.48416 9.43764H59.4215L58.9524 10.257C57.4159 12.9407 56.6037 15.9928 56.6037 19.0843C56.6037 22.1779 57.4159 25.2328 58.9524 27.9186L59.4209 28.738H2.48416Z" fill="#7D868C"/>
<path d="M60.3654 8.89053H58.477H2.85393H2.115L1.83858 9.57582C0.618515 12.6016 0 15.8009 0 19.0856C0 22.3692 0.618516 25.5696 1.83803 28.5993L2.11445 29.2856H2.85393H58.477H60.3643L59.4272 27.6469C57.9379 25.0442 57.1508 22.083 57.1508 19.0845C57.1508 16.0877 57.9379 13.1298 59.4272 10.5293L60.3654 8.89053ZM58.477 9.98525C56.9395 12.6706 56.056 15.7752 56.056 19.0845C56.056 22.3971 56.9395 25.5029 58.477 28.1909H2.85393C1.7198 25.3742 1.09472 22.3008 1.09472 19.0856C1.09472 15.871 1.7198 12.7976 2.85393 9.98525H58.477Z" fill="#F2F2F2"/>
<path d="M89.4736 28.738L89.9422 27.9186C91.4797 25.2317 92.292 22.1769 92.292 19.0843C92.292 15.9955 91.4802 12.9429 89.9438 10.257L89.4758 9.43764H97.5154L97.6539 9.78029C98.8471 12.7409 99.4531 15.8718 99.4531 19.0859C99.4531 22.2984 98.8471 25.4309 97.6539 28.3954L97.516 28.738H89.4736Z" fill="#7D868C"/>
<path d="M97.8849 8.89059H97.146H90.419H88.5317L89.4687 10.5288C90.9576 13.1321 91.7447 16.0905 91.7447 19.0846C91.7447 22.0819 90.957 25.0426 89.4671 27.6469L88.53 29.2852H90.4173H97.146H97.8855L98.1613 28.5999C99.3814 25.5702 99.9999 22.3693 99.9999 19.0857C99.9999 15.801 99.3814 12.6011 98.1613 9.57588L97.8849 8.89059ZM97.146 9.98531C98.2807 12.7976 98.9052 15.871 98.9052 19.0857C98.9052 22.3009 98.2807 25.3743 97.146 28.1904H90.4173C91.9548 25.5029 92.8394 22.3972 92.8394 19.0846C92.8394 15.7753 91.9548 12.6706 90.419 9.98531H97.146Z" fill="#F2F2F2"/>
<path d="M61.512 15.6894H62.3741C63.529 15.6894 64.4458 16.0517 64.4458 17.1716C64.4458 18.3266 63.529 18.6873 62.3741 18.6873H61.512V15.6894ZM58.1638 24.5593H61.512V20.753H62.8082C65.9379 20.753 67.7929 19.4388 67.7929 17.2203C67.7929 14.7534 65.9927 13.6248 62.1595 13.6248H58.1638V24.5593Z" fill="#7D868C"/>
<path d="M74.1218 20.1741H70.9811L72.5854 15.879H72.6248L74.1218 20.1741ZM65.8206 24.5596H69.2169L70.2043 22.2371H74.9073L75.8493 24.5596H79.5105L74.6768 13.625H70.5815L65.8206 24.5596Z" fill="#7D868C"/>
<path d="M90.7325 24.2504C88.6148 24.7222 87.0297 24.749 85.8818 24.749C82.5408 24.749 78.6841 23.2832 78.6841 19.1375C78.6841 15.0121 82.0033 13.4318 86.5967 13.4318C87.4254 13.4318 89.1693 13.5112 90.3855 13.9195L90.1211 16.2995C89.079 15.7658 87.8594 15.5923 87.068 15.5923C84.3569 15.5923 82.1313 16.5863 82.1313 19.1441C82.1313 21.2864 83.8741 22.5908 86.3126 22.5908C86.7631 22.5908 87.1988 22.5306 87.496 22.402V20.2382H85.5425V18.1763H90.7325V24.2504Z" fill="#7D868C"/>
<path d="M7.61289 21.8641C8.47005 22.2724 9.6726 22.5866 11.053 22.5866C12.1149 22.5866 13.1111 22.3983 13.1111 21.5225C13.1111 19.4803 7.1958 20.7683 7.1958 16.7775C7.1958 14.1512 10.1389 13.4238 12.6519 13.4238C13.8478 13.4238 15.0323 13.5847 15.8753 13.8332L15.6601 16.09C14.8002 15.7441 13.8292 15.587 12.8807 15.587C12.0383 15.587 10.6436 15.6526 10.6436 16.6072C10.6436 18.3801 16.5595 17.1869 16.5595 21.1443C16.5595 23.9774 13.8292 24.7454 11.053 24.7454C9.88497 24.7454 8.43611 24.5883 7.32552 24.2746L7.61289 21.8641Z" fill="#F2F2F2"/>
<path d="M17.5095 13.6205H26.3537V15.6873H20.8583V17.9408H26.0483V20.0076H20.8583V22.4882H26.5508V24.5518H17.5095V13.6205Z" fill="#F2F2F2"/>
<path d="M31.1003 15.6873H31.9788C33.2564 15.6873 34.4261 15.8723 34.4261 16.897C34.4261 18.1362 33.0549 18.1668 31.9788 18.1668H31.1003V15.6873ZM27.7505 24.5518H31.1003V20.2336H31.7987C33.0407 20.2336 33.4676 20.7011 34.1486 22.5785L34.8711 24.5518H38.3577L37.1328 21.5758C36.517 20.2457 36.4475 19.4159 35.3621 19.1652V19.1346C36.9833 18.8061 37.7748 17.8384 37.7748 16.3742C37.7748 14.4968 35.9576 13.6205 33.7276 13.6205H27.7505V24.5518Z" fill="#F2F2F2"/>
<path d="M37.8225 13.6205H41.3814L44.1658 22.2014H44.2058L47.0181 13.6205H50.4512L46.1725 24.5518H42.0366L37.8225 13.6205Z" fill="#F2F2F2"/>
<path d="M51.2114 13.6201H54.5558V24.5514H51.2114V13.6201Z" fill="#F2F2F2"/>
</svg>
